<svg width="133" height="134" xmlns="http://www.w3.org/2000/svg" xmlns:xlink="http://www.w3.org/1999/xlink" xml:space="preserve" overflow="hidden"><defs><linearGradient x1="66.5" y1="-4.57721" x2="66.5" y2="136.148" gradientUnits="userSpaceOnUse" spreadMethod="pad" id="fill0"><stop offset="0" stop-color="#376DB5"/><stop offset="1" stop-color="#0CB068"/></linearGradient><linearGradient x1="12.4596" y1="-4.57721" x2="12.4596" y2="136.148" gradientUnits="userSpaceOnUse" spreadMethod="pad" id="fill1"><stop offset="0" stop-color="#376DB5"/><stop offset="1" stop-color="#0CB068"/></linearGradient><linearGradient x1="66.4783" y1="-4.57721" x2="66.4783" y2="136.148" gradientUnits="userSpaceOnUse" spreadMethod="pad" id="fill2"><stop offset="0" stop-color="#376DB5"/><stop offset="1" stop-color="#0CB068"/></linearGradient><linearGradient x1="66.4783" y1="-4.57721" x2="66.4783" y2="136.148" gradientUnits="userSpaceOnUse" spreadMethod="pad" id="fill3"><stop offset="0" stop-color="#376DB5"/><stop offset="1" stop-color="#0CB068"/></linearGradient><linearGradient x1="120.502" y1="-4.57721" x2="120.502" y2="136.148" gradientUnits="userSpaceOnUse" spreadMethod="pad" id="fill4"><stop offset="0" stop-color="#376DB5"/><stop offset="1" stop-color="#0CB068"/></linearGradient><linearGradient x1="66.4728" y1="-4.57721" x2="66.4728" y2="136.148" gradientUnits="userSpaceOnUse" spreadMethod="pad" id="fill5"><stop offset="0" stop-color="#376DB5"/><stop offset="1" stop-color="#0CB068"/></linearGradient><linearGradient x1="45.7069" y1="-4.57721" x2="45.7069" y2="136.148" gradientUnits="userSpaceOnUse" spreadMethod="pad" id="fill6"><stop offset="0" stop-color="#376DB5"/><stop offset="1" stop-color="#0CB068"/></linearGradient><linearGradient x1="66.4837" y1="-4.57721" x2="66.4837" y2="136.148" gradientUnits="userSpaceOnUse" spreadMethod="pad" id="fill7"><stop offset="0" stop-color="#376DB5"/><stop offset="1" stop-color="#0CB068"/></linearGradient><linearGradient x1="87.2551" y1="-4.57721" x2="87.2551" y2="136.148" gradientUnits="userSpaceOnUse" spreadMethod="pad" id="fill8"><stop offset="0" stop-color="#376DB5"/><stop offset="1" stop-color="#0CB068"/></linearGradient><linearGradient x1="45.7069" y1="-4.57721" x2="45.7069" y2="136.148" gradientUnits="userSpaceOnUse" spreadMethod="pad" id="fill9"><stop offset="0" stop-color="#376DB5"/><stop offset="1" stop-color="#0CB068"/></linearGradient><linearGradient x1="66.4837" y1="-4.57721" x2="66.4837" y2="136.148" gradientUnits="userSpaceOnUse" spreadMethod="pad" id="fill10"><stop offset="0" stop-color="#376DB5"/><stop offset="1" stop-color="#0CB068"/></linearGradient><linearGradient x1="87.2551" y1="-4.57721" x2="87.2551" y2="136.148" gradientUnits="userSpaceOnUse" spreadMethod="pad" id="fill11"><stop offset="0" stop-color="#376DB5"/><stop offset="1" stop-color="#0CB068"/></linearGradient><linearGradient x1="18.6894" y1="-4.57721" x2="18.6894" y2="136.148" gradientUnits="userSpaceOnUse" spreadMethod="pad" id="fill12"><stop offset="0" stop-color="#376DB5"/><stop offset="1" stop-color="#0CB068"/></linearGradient><linearGradient x1="114.278" y1="-4.57721" x2="114.278" y2="136.148" gradientUnits="userSpaceOnUse" spreadMethod="pad" id="fill13"><stop offset="0" stop-color="#376DB5"/><stop offset="1" stop-color="#0CB068"/></linearGradient><linearGradient x1="18.6839" y1="-4.57721" x2="18.6839" y2="136.148" gradientUnits="userSpaceOnUse" spreadMethod="pad" id="fill14"><stop offset="0" stop-color="#376DB5"/><stop offset="1" stop-color="#0CB068"/></linearGradient><linearGradient x1="114.273" y1="-4.57721" x2="114.273" y2="136.148" gradientUnits="userSpaceOnUse" spreadMethod="pad" id="fill15"><stop offset="0" stop-color="#376DB5"/><stop offset="1" stop-color="#0CB068"/></linearGradient></defs><g transform="translate(-1541 -995)"><path d="M0 125.427C0.891523 123.046 2.30491 121.193 4.9523 120.644 5.5394 120.524 6.15368 120.497 6.75166 120.497 46.5821 120.491 86.4125 120.491 126.243 120.497 130.38 120.497 132.94 123.074 132.957 127.227 132.957 128.135 132.891 129.048 132.973 129.95 133.087 131.222 132.712 132.223 131.657 132.962L0 132.962 0 125.433ZM4.15863 128.711 128.738 128.711C128.994 125.134 128.553 124.65 125.128 124.65 85.9287 124.65 46.7288 124.65 7.52902 124.65 7.09413 124.65 6.65924 124.628 6.22979 124.661 4.99035 124.748 4.24017 125.487 4.16406 126.727 4.12058 127.368 4.15863 128.01 4.15863 128.716Z" fill="url(#fill0)" transform="matrix(1 0 0 1.00752 1541 995.022)"/><path d="M0 40.7872C0.728439 39.7271 1.73956 39.4553 3.00617 39.4662 9.40991 39.5206 15.8082 39.4662 22.212 39.5206 22.9295 39.526 23.8645 39.7434 24.2994 40.2218 24.718 40.6839 24.9463 41.7874 24.6745 42.2875 24.3321 42.9127 23.4079 43.5542 22.7067 43.5813 19.5972 43.7172 16.4823 43.6411 13.3674 43.6411 10.3504 43.6411 7.32788 43.6411 4.23473 43.6411L4.23473 47.7943 5.55027 47.7943C10.9592 47.7943 16.3627 47.7943 21.7716 47.7943 22.0761 47.7943 22.375 47.7835 22.6795 47.7943 24.0168 47.8541 24.892 48.6532 24.9192 49.822 24.9463 51.0397 24.0331 51.9258 22.636 51.9312 18.3958 51.953 14.1556 51.9421 9.91547 51.9421 9.44253 51.9421 8.96959 51.9421 8.30638 51.9421L8.30638 53.4968C8.30638 73.3495 8.30638 93.1968 8.30638 113.049 8.30638 115.322 7.69754 116.295 6.2624 116.322 4.79465 116.349 4.15319 115.333 4.15319 112.99 4.15319 93.2239 4.15319 73.4582 4.15319 53.6979 4.15319 53.1815 4.15319 52.6651 4.15319 51.991 2.65282 51.866 0.95132 52.2791 9.6565e-16 50.6483L9.6565e-16 40.7817Z" fill="url(#fill1)" transform="matrix(1 0 0 1.00752 1541 995.022)"/><path d="M99.7201 25.0116 33.2418 25.0116 33.2418 26.5935C33.2418 55.4538 33.2418 84.3087 33.2418 113.169 33.2418 115.316 32.6167 116.295 31.2196 116.333 29.7736 116.376 29.0887 115.354 29.0887 113.153 29.0887 84.3794 29.0887 55.606 29.0887 26.8381L29.0887 24.9518C27.8112 24.9518 26.5772 24.9626 25.3432 24.9518 23.6362 24.93 22.8752 24.1961 22.8643 22.5055 22.848 19.9505 22.8426 17.401 22.8643 14.846 22.8806 13.3022 23.6471 12.5466 25.1747 12.4922 25.4356 12.4813 25.6965 12.4922 25.952 12.4922 52.9586 12.4922 79.9598 12.4922 106.966 12.4922 109.592 12.4922 110.114 13.0304 110.114 15.7049 110.114 17.6946 110.114 19.6842 110.114 21.6738 110.114 24.4353 109.608 24.9518 106.896 24.9518 105.95 24.9518 105.004 24.9518 103.879 24.9518L103.879 26.6587C103.879 55.4756 103.879 84.2924 103.879 113.104 103.879 113.577 103.928 114.066 103.841 114.528 103.64 115.642 102.938 116.322 101.791 116.317 100.644 116.317 99.9484 115.637 99.7581 114.512 99.6766 114.05 99.7255 113.56 99.7255 113.088 99.7255 84.2707 99.7255 55.4592 99.7255 26.6424L99.7255 25.0116ZM105.896 16.7324 27.1153 16.7324 27.1153 20.7279 105.896 20.7279 105.896 16.7324Z" fill="url(#fill2)" transform="matrix(1 0 0 1.00752 1541 995.022)"/><path d="M78.9487 87.3149 68.5603 87.3149 68.5603 88.7446C68.5603 96.9205 68.5603 105.096 68.5603 113.272 68.5603 113.664 68.582 114.055 68.5385 114.441 68.4026 115.566 67.5057 116.393 66.4348 116.322 65.2932 116.251 64.6137 115.594 64.4343 114.468 64.3745 114.088 64.4071 113.691 64.4071 113.3 64.4071 105.124 64.4071 96.9477 64.4071 88.7718L64.4071 87.3203 54.0187 87.3203C54.0187 87.777 54.0187 88.2336 54.0187 88.6902 54.0187 96.8661 54.0187 105.042 54.0187 113.218 54.0187 113.653 54.0622 114.093 53.9861 114.512 53.7849 115.626 53.0891 116.306 51.9421 116.306 50.7951 116.306 50.1101 115.632 49.8981 114.512 49.8329 114.175 49.8655 113.821 49.8655 113.473 49.8655 104.303 49.8655 95.132 49.8655 85.9613 49.8655 83.7434 50.507 83.0965 52.7086 83.0965 61.9228 83.0965 71.1424 83.0965 80.3567 83.0965 82.4061 83.0965 83.1019 83.7814 83.1019 85.7982 83.1019 95.0559 83.1019 104.314 83.1019 113.571 83.1019 115.333 82.3735 116.3 81.0525 116.317 79.7206 116.338 78.9541 115.36 78.9487 113.626 78.9487 109.429 78.9487 105.232 78.9487 101.036 78.9487 96.4965 78.9487 91.9628 78.9487 87.2986Z" fill="url(#fill3)" transform="matrix(1 0 0 1.00752 1541 995.022)"/><path d="M128.744 47.7998 128.744 43.6466C127.531 43.6466 126.373 43.6466 125.215 43.6466 120.372 43.6466 115.523 43.6466 110.679 43.6466 109.021 43.6466 108.075 42.9073 108.043 41.6243 108.01 40.2925 108.983 39.4988 110.706 39.4988 117.241 39.4988 123.775 39.4934 130.309 39.4988 132.255 39.4988 132.957 40.2109 132.962 42.1625 132.973 44.4566 132.962 46.7506 132.962 49.0392 132.962 51.3278 132.342 51.9421 130.032 51.953 129.689 51.953 129.341 51.953 128.809 51.953L128.809 53.4968C128.809 73.3984 128.809 93.2946 128.809 113.196 128.809 115.333 128.167 116.311 126.759 116.333 125.341 116.355 124.656 115.354 124.656 113.256 124.656 93.3979 124.656 73.5452 124.656 53.6871L124.656 51.953C124.139 51.953 123.682 51.953 123.226 51.953 119.029 51.953 114.833 51.953 110.636 51.953 109 51.953 108.048 51.1756 108.048 49.8818 108.048 48.5826 108.994 47.8106 110.63 47.8052 116.17 47.7998 121.709 47.8052 127.243 47.8052 127.711 47.8052 128.178 47.8052 128.749 47.8052Z" fill="url(#fill4)" transform="matrix(1 0 0 1.00752 1541 995.022)"/><path d="M66.4728 0.0271806C75.9099 0.0271806 85.3416 0.048925 94.7787 0 96.2899-0.00543611 97.2249 0.521867 97.8066 1.8972 98.2904 3.04966 98.9373 4.13145 99.4537 5.27303 100.003 6.47985 99.6005 7.59969 98.5024 8.11612 97.4696 8.60537 96.4204 8.22484 95.7626 7.12131 95.7191 7.04521 95.6593 6.97454 95.6376 6.89299 95.0396 4.49567 93.4686 4.09883 91.1419 4.11514 74.2193 4.2293 57.2967 4.19668 40.374 4.13688 39.0204 4.13688 38.2974 4.52285 37.8843 5.74597 37.7049 6.27328 37.4168 6.76796 37.1232 7.24634 36.4981 8.26289 35.4489 8.5945 34.4487 8.12156 33.3941 7.62143 32.9429 6.52877 33.4539 5.4035 34.1116 3.94662 34.8455 2.52779 35.5848 1.10897 36.1067 0.125031 37.0308 0.0163083 38.0365 0.0163083 47.5171 0.0271806 56.9922 0.0217445 66.4728 0.0217445Z" fill="url(#fill5)" transform="matrix(1 0 0 1.00752 1541 995.022)"/><path d="M54.0132 39.5097C54.0132 42.1081 54.0241 44.7012 54.0132 47.2996 54.0024 49.1479 53.2739 49.8709 51.3985 49.8764 47.5878 49.8872 43.7825 49.8872 39.9718 49.8764 38.1235 49.8764 37.4005 49.137 37.4005 47.2616 37.395 42.0701 37.3896 36.8786 37.4005 31.6871 37.4005 29.8334 38.1343 29.1213 40.0152 29.1158 43.826 29.105 47.6312 29.105 51.442 29.1158 53.2957 29.1158 54.0078 29.8497 54.0187 31.7306 54.0295 34.3291 54.0187 36.9221 54.0187 39.5206ZM49.7676 45.6634 49.7676 33.3614 41.6189 33.3614 41.6189 45.6634 49.7676 45.6634Z" fill="url(#fill6)" transform="matrix(1 0 0 1.00752 1541 995.022)"/><path d="M58.1719 39.4499C58.1719 36.8514 58.161 34.2584 58.1719 31.6599 58.1827 29.866 58.9112 29.1158 60.6725 29.1104 64.5647 29.0995 68.4624 29.0941 72.3547 29.1104 73.9801 29.1158 74.7738 29.8769 74.7792 31.4805 74.7955 36.8025 74.7955 42.1245 74.7792 47.4464 74.7792 49.0718 74.0073 49.8601 72.409 49.8709 68.4733 49.8927 64.5321 49.8927 60.5964 49.8709 58.9221 49.8655 58.1827 49.0881 58.1719 47.3703 58.1556 44.7284 58.1719 42.0918 58.1719 39.4499ZM62.3794 45.6253 70.5282 45.6253 70.5282 33.3343 62.3794 33.3343 62.3794 45.6253Z" fill="url(#fill7)" transform="matrix(1 0 0 1.00752 1541 995.022)"/><path d="M95.5669 39.5314C95.5669 42.1299 95.5778 44.7229 95.5669 47.3214 95.556 49.1099 94.8222 49.8655 93.0609 49.8709 89.1686 49.8872 85.2709 49.8872 81.3786 49.8709 79.7533 49.8655 78.9705 49.099 78.965 47.4953 78.9487 42.1734 78.9487 36.8514 78.965 31.5295 78.965 29.8986 79.7315 29.1213 81.3406 29.1158 85.2763 29.0941 89.2175 29.0995 93.1533 29.1158 94.8276 29.1213 95.5669 29.8986 95.5723 31.6164 95.5886 34.2584 95.5723 36.8949 95.5723 39.5369ZM91.3594 33.3234 83.1726 33.3234 83.1726 45.6362 91.3594 45.6362 91.3594 33.3234Z" fill="url(#fill8)" transform="matrix(1 0 0 1.00752 1541 995.022)"/><path d="M37.395 64.2984C37.395 61.6999 37.3842 59.1069 37.395 56.5084 37.4059 54.8015 38.1507 54.0404 39.8413 54.035 43.7335 54.0187 47.6312 54.0187 51.5235 54.035 53.2304 54.0404 53.9969 54.796 54.0024 56.4812 54.0187 61.7597 54.0187 67.0382 54.0024 72.3166 54.0024 74.0182 53.2413 74.7846 51.5507 74.7955 47.6584 74.8118 43.7607 74.8118 39.8685 74.7955 38.1615 74.7901 37.4059 74.0345 37.395 72.3438 37.3787 69.6638 37.395 66.9784 37.395 64.2984ZM49.8003 58.2697 41.6515 58.2697 41.6515 70.5771 49.8003 70.5771 49.8003 58.2697Z" fill="url(#fill9)" transform="matrix(1 0 0 1.00752 1541 995.022)"/><path d="M58.1719 64.418C58.1719 61.776 58.161 59.1395 58.1719 56.4975 58.1827 54.796 58.9329 54.0404 60.629 54.035 64.5213 54.0187 68.4189 54.0187 72.3112 54.035 74.0073 54.0404 74.7738 54.796 74.7792 56.4921 74.7955 61.7706 74.7955 67.049 74.7792 72.3275 74.7792 74.0236 74.0127 74.7901 72.3166 74.7955 68.4244 74.8118 64.5267 74.8118 60.6344 74.7955 58.9384 74.7901 58.1827 74.029 58.1719 72.3384 58.1556 69.6964 58.1719 67.0599 58.1719 64.418ZM62.3794 70.5499 70.5282 70.5499 70.5282 58.2534 62.3794 58.2534 62.3794 70.5499Z" fill="url(#fill10)" transform="matrix(1 0 0 1.00752 1541 995.022)"/><path d="M95.5669 64.4125C95.5669 67.011 95.5778 69.604 95.5669 72.2025 95.556 74.0616 94.833 74.7901 92.9684 74.7955 89.1577 74.8064 85.3524 74.8064 81.5417 74.7955 79.6826 74.7955 78.9541 74.0616 78.9487 72.197 78.9378 67.0056 78.9378 61.8141 78.9487 56.6226 78.9487 54.758 79.6771 54.035 81.5417 54.0295 85.3524 54.0187 89.1577 54.0187 92.9684 54.0295 94.833 54.0295 95.556 54.758 95.5615 56.6226 95.5723 59.221 95.5615 61.8141 95.5615 64.4125ZM91.3485 58.2697 83.1997 58.2697 83.1997 70.588 91.3485 70.588 91.3485 58.2697Z" fill="url(#fill11)" transform="matrix(1 0 0 1.00752 1541 995.022)"/><path d="M16.7106 68.5712C18.7057 68.5712 20.6029 68.5548 22.5001 68.5712 24.0059 68.5875 24.9409 69.4192 24.9192 70.6749 24.8974 71.8926 23.995 72.6972 22.5599 72.7135 19.9669 72.7352 17.3738 72.7407 14.7808 72.7135 13.2587 72.6972 12.4813 71.9089 12.4704 70.3705 12.4487 67.7775 12.4433 65.1845 12.4704 62.5969 12.4868 61.0639 13.2587 60.2811 14.7917 60.2702 17.3847 60.243 19.9777 60.2485 22.5708 60.2702 24.0059 60.2811 24.9028 61.0965 24.9192 62.3142 24.9355 63.5699 24.0005 64.3962 22.4892 64.4125 20.592 64.4288 18.6948 64.4125 16.7106 64.4125L16.7106 68.5657Z" fill="url(#fill12)" transform="matrix(1 0 0 1.00752 1541 995.022)"/><path d="M116.289 68.5712 116.289 64.4125C114.283 64.4125 112.316 64.4343 110.342 64.4071 108.929 64.3854 108.026 63.5373 108.037 62.3196 108.048 61.1889 108.88 60.2974 110.119 60.2811 112.886 60.2376 115.648 60.2376 118.415 60.2811 119.649 60.3028 120.453 61.1019 120.475 62.3359 120.524 65.0975 120.519 67.8645 120.475 70.6314 120.453 71.8654 119.66 72.6863 118.437 72.708 115.67 72.757 112.908 72.7515 110.141 72.708 108.902 72.6917 108.065 71.8111 108.043 70.6858 108.021 69.5062 108.885 68.6146 110.195 68.5875 112.18 68.5494 114.164 68.5766 116.289 68.5766Z" fill="url(#fill13)" transform="matrix(1 0 0 1.00752 1541 995.022)"/><path d="M16.6726 85.1839 16.6726 89.3426C18.722 89.3426 20.7388 89.2393 22.7447 89.3969 23.4297 89.4513 24.294 90.0166 24.6473 90.6037 24.9355 91.0821 24.7887 92.0824 24.4462 92.5988 24.1309 93.0717 23.3155 93.4305 22.7067 93.4523 20.0321 93.5447 17.3521 93.5175 14.6721 93.4794 13.2967 93.4631 12.4976 92.664 12.4813 91.2887 12.4487 88.6087 12.4487 85.9341 12.4813 83.2541 12.4976 81.8679 13.2804 81.0633 14.6558 81.047 17.3793 81.009 20.0973 81.009 22.8208 81.047 24.0602 81.0633 24.9028 81.9386 24.9246 83.0638 24.9463 84.238 24.0766 85.1404 22.7719 85.1676 20.7877 85.2111 18.8035 85.1785 16.678 85.1785Z" fill="url(#fill14)" transform="matrix(1 0 0 1.00752 1541 995.022)"/><path d="M116.284 89.3426 116.284 85.1894C114.387 85.1894 112.544 85.1948 110.696 85.1894 108.983 85.1839 108.005 84.3903 108.037 83.0584 108.07 81.7755 109.01 81.0416 110.668 81.0362 113.044 81.0307 115.42 81.0307 117.795 81.0362 119.758 81.0416 120.475 81.7429 120.486 83.6618 120.497 86.1244 120.502 88.5869 120.486 91.0495 120.475 92.7347 119.709 93.4849 118.013 93.4958 115.507 93.5121 113.001 93.5121 110.494 93.4958 108.967 93.4849 108.043 92.6858 108.037 91.4246 108.037 90.1634 108.956 89.3643 110.484 89.348 112.381 89.3317 114.273 89.348 116.279 89.348Z" fill="url(#fill15)" transform="matrix(1 0 0 1.00752 1541 995.022)"/></g></svg>