<svg width="133" height="133" xmlns="http://www.w3.org/2000/svg" xmlns:xlink="http://www.w3.org/1999/xlink" xml:space="preserve" overflow="hidden"><defs><clipPath id="clip0"><rect x="648" y="986" width="133" height="133"/></clipPath><linearGradient x1="714.508" y1="980.694" x2="714.508" y2="1119.55" gradientUnits="userSpaceOnUse" spreadMethod="pad" id="fill1"><stop offset="0" stop-color="#376DB5"/><stop offset="1" stop-color="#0CB068"/></linearGradient><linearGradient x1="672.09" y1="980.694" x2="672.09" y2="1119.55" gradientUnits="userSpaceOnUse" spreadMethod="pad" id="fill2"><stop offset="0" stop-color="#376DB5"/><stop offset="1" stop-color="#0CB068"/></linearGradient><linearGradient x1="672.074" y1="980.694" x2="672.074" y2="1119.55" gradientUnits="userSpaceOnUse" spreadMethod="pad" id="fill3"><stop offset="0" stop-color="#376DB5"/><stop offset="1" stop-color="#0CB068"/></linearGradient><linearGradient x1="756.91" y1="980.694" x2="756.91" y2="1119.55" gradientUnits="userSpaceOnUse" spreadMethod="pad" id="fill4"><stop offset="0" stop-color="#376DB5"/><stop offset="1" stop-color="#0CB068"/></linearGradient><linearGradient x1="663.026" y1="980.694" x2="663.026" y2="1119.55" gradientUnits="userSpaceOnUse" spreadMethod="pad" id="fill5"><stop offset="0" stop-color="#376DB5"/><stop offset="1" stop-color="#0CB068"/></linearGradient><linearGradient x1="765.974" y1="980.694" x2="765.974" y2="1119.55" gradientUnits="userSpaceOnUse" spreadMethod="pad" id="fill6"><stop offset="0" stop-color="#376DB5"/><stop offset="1" stop-color="#0CB068"/></linearGradient><linearGradient x1="714.492" y1="980.694" x2="714.492" y2="1119.55" gradientUnits="userSpaceOnUse" spreadMethod="pad" id="fill7"><stop offset="0" stop-color="#376DB5"/><stop offset="1" stop-color="#0CB068"/></linearGradient><linearGradient x1="683.139" y1="980.694" x2="683.139" y2="1119.55" gradientUnits="userSpaceOnUse" spreadMethod="pad" id="fill8"><stop offset="0" stop-color="#376DB5"/><stop offset="1" stop-color="#0CB068"/></linearGradient><linearGradient x1="745.854" y1="980.694" x2="745.854" y2="1119.55" gradientUnits="userSpaceOnUse" spreadMethod="pad" id="fill9"><stop offset="0" stop-color="#376DB5"/><stop offset="1" stop-color="#0CB068"/></linearGradient><linearGradient x1="714.492" y1="980.694" x2="714.492" y2="1119.55" gradientUnits="userSpaceOnUse" spreadMethod="pad" id="fill10"><stop offset="0" stop-color="#376DB5"/><stop offset="1" stop-color="#0CB068"/></linearGradient><linearGradient x1="756.839" y1="980.694" x2="756.839" y2="1119.55" gradientUnits="userSpaceOnUse" spreadMethod="pad" id="fill11"><stop offset="0" stop-color="#376DB5"/><stop offset="1" stop-color="#0CB068"/></linearGradient><linearGradient x1="714.492" y1="980.694" x2="714.492" y2="1119.55" gradientUnits="userSpaceOnUse" spreadMethod="pad" id="fill12"><stop offset="0" stop-color="#376DB5"/><stop offset="1" stop-color="#0CB068"/></linearGradient><linearGradient x1="714.492" y1="980.694" x2="714.492" y2="1119.55" gradientUnits="userSpaceOnUse" spreadMethod="pad" id="fill13"><stop offset="0" stop-color="#376DB5"/><stop offset="1" stop-color="#0CB068"/></linearGradient><linearGradient x1="663.038" y1="980.694" x2="663.038" y2="1119.55" gradientUnits="userSpaceOnUse" spreadMethod="pad" id="fill14"><stop offset="0" stop-color="#376DB5"/><stop offset="1" stop-color="#0CB068"/></linearGradient><linearGradient x1="663.038" y1="980.694" x2="663.038" y2="1119.55" gradientUnits="userSpaceOnUse" spreadMethod="pad" id="fill15"><stop offset="0" stop-color="#376DB5"/><stop offset="1" stop-color="#0CB068"/></linearGradient><linearGradient x1="765.946" y1="980.694" x2="765.946" y2="1119.55" gradientUnits="userSpaceOnUse" spreadMethod="pad" id="fill16"><stop offset="0" stop-color="#376DB5"/><stop offset="1" stop-color="#0CB068"/></linearGradient><linearGradient x1="765.942" y1="980.694" x2="765.942" y2="1119.55" gradientUnits="userSpaceOnUse" spreadMethod="pad" id="fill17"><stop offset="0" stop-color="#376DB5"/><stop offset="1" stop-color="#0CB068"/></linearGradient><linearGradient x1="719.688" y1="980.694" x2="719.688" y2="1119.55" gradientUnits="userSpaceOnUse" spreadMethod="pad" id="fill18"><stop offset="0" stop-color="#376DB5"/><stop offset="1" stop-color="#0CB068"/></linearGradient></defs><g clip-path="url(#clip0)" transform="translate(-648 -986)"><path d="M715.27 986C716.328 986.735 716.626 987.741 716.591 989.011 716.516 991.864 716.591 994.722 716.552 997.579 716.544 998.291 716.748 998.609 717.448 998.872 723.316 1001.07 726.633 1006.63 725.859 1012.85 725.667 1014.41 724.951 1015.07 723.387 1015.09 721.182 1015.11 718.977 1015.09 716.681 1015.09 716.355 1016.24 715.777 1017.19 714.425 1017.15 713.191 1017.11 712.625 1016.26 712.326 1015.09 710.173 1015.09 708.011 1015.1 705.853 1015.09 703.962 1015.09 703.255 1014.44 703.102 1012.59 702.571 1006.2 705.696 1001.12 711.658 998.829 712.374 998.554 712.425 998.181 712.421 997.583 712.409 994.726 712.468 991.868 712.389 989.015 712.354 987.745 712.649 986.735 713.71 986.004L715.266 986.004ZM707.323 1010.87 721.661 1010.87C721.988 1006.77 718.391 1002.63 714.559 1002.62 710.597 1002.62 706.993 1006.69 707.327 1010.87Z" fill="url(#fill1)"/><path d="M650.857 986C665.982 999.509 681.11 1013.01 696.18 1026.48 695.362 1027.61 694.596 1028.67 693.763 1029.83 693.503 1029.62 693.146 1029.35 692.808 1029.05 678.257 1016.05 663.706 1003.05 649.159 990.037 648.751 989.671 648.385 989.25 648 988.857 648 987.906 648 986.951 648 986L650.857 986Z" fill="url(#fill2)"/><path d="M648 1116.13C651.451 1112.99 654.882 1109.84 658.357 1106.73 669.834 1096.45 681.323 1086.2 692.812 1075.93 693.134 1075.64 693.468 1075.38 693.763 1075.12 694.545 1076.23 695.307 1077.3 696.149 1078.48 695.901 1078.72 695.547 1079.07 695.174 1079.4 680.816 1092.23 666.458 1105.06 652.099 1117.89 650.382 1119.42 649.497 1119.38 648 1117.69 648 1117.16 648 1116.65 648 1116.13Z" fill="url(#fill3)"/><path d="M779.687 986C781.424 987.545 781.444 988.61 779.734 990.135 765.184 1003.14 750.633 1016.14 736.078 1029.14 735.792 1029.4 735.489 1029.64 735.225 1029.87 734.439 1028.76 733.681 1027.69 732.82 1026.48 747.842 1013.05 762.987 999.529 778.127 986 778.646 986 779.164 986 779.683 986Z" fill="url(#fill4)"/><path d="M654.234 1051.56C654.234 1038.97 654.234 1026.38 654.234 1013.79 654.234 1012.24 654.741 1011.31 655.845 1011.23 656.506 1011.18 657.347 1011.39 657.854 1011.8 662.177 1015.25 666.434 1018.79 670.738 1022.28 671.614 1022.99 671.807 1023.87 671.807 1024.92 671.795 1032.1 671.799 1039.29 671.799 1046.47 671.799 1057.28 671.776 1068.1 671.823 1078.92 671.831 1080.47 671.3 1081.48 670.046 1082.38 666.033 1085.24 662.091 1088.2 658.129 1091.14 657.296 1091.76 656.466 1092.27 655.397 1091.73 654.336 1091.2 654.222 1090.25 654.226 1089.21 654.238 1076.66 654.234 1064.11 654.234 1051.56ZM658.439 1085.74C661.497 1083.48 664.394 1081.38 667.24 1079.21 667.527 1078.99 667.625 1078.38 667.629 1077.95 667.649 1060.68 667.652 1043.41 667.613 1026.14 667.613 1025.59 667.267 1024.89 666.855 1024.52 665.341 1023.16 663.734 1021.91 662.158 1020.63 660.971 1019.66 659.78 1018.7 658.439 1017.61L658.439 1085.74Z" fill="url(#fill5)"/><path d="M774.751 1051.49C774.751 1063.86 774.751 1076.24 774.751 1088.61 774.751 1088.92 774.841 1089.26 774.731 1089.51 774.409 1090.26 774.181 1091.3 773.591 1091.61 773.001 1091.92 771.826 1091.77 771.241 1091.35 766.87 1088.25 762.586 1085.02 758.258 1081.85 757.338 1081.18 757.169 1080.27 757.173 1079.23 757.185 1073.69 757.181 1068.15 757.181 1062.61 757.181 1050.15 757.197 1037.69 757.162 1025.23 757.158 1023.82 757.559 1022.79 758.694 1021.89 762.755 1018.65 766.752 1015.34 770.753 1012.04 771.602 1011.34 772.467 1010.79 773.571 1011.32 774.688 1011.85 774.758 1012.88 774.754 1013.98 774.739 1026.48 774.747 1038.99 774.747 1051.49ZM770.533 1017.62C767.735 1019.9 765.125 1022.09 762.448 1024.19 761.615 1024.84 761.308 1025.53 761.312 1026.59 761.348 1042.99 761.387 1059.39 761.277 1075.79 761.261 1078.1 761.792 1079.62 763.824 1080.85 766.127 1082.25 768.21 1084.01 770.533 1085.72L770.533 1017.62Z" fill="url(#fill6)"/><path d="M697.87 1052.49C697.87 1045.83 697.87 1039.16 697.87 1032.49 697.87 1030.28 698.515 1029.64 700.724 1029.64 709.901 1029.64 719.079 1029.64 728.253 1029.64 730.466 1029.64 731.114 1030.28 731.114 1032.49 731.114 1045.82 731.114 1059.15 731.114 1072.49 731.114 1074.7 730.466 1075.35 728.261 1075.35 719.083 1075.35 709.905 1075.35 700.732 1075.35 698.523 1075.35 697.874 1074.7 697.874 1072.49 697.874 1065.83 697.874 1059.16 697.874 1052.5ZM702.08 1071.1 726.854 1071.1 726.854 1033.86 702.08 1033.86 702.08 1071.1Z" fill="url(#fill7)"/><path d="M689.023 1052.1C689.023 1057.07 688.999 1062.05 689.038 1067.02 689.046 1068.22 688.649 1069.08 687.67 1069.77 685.41 1071.36 683.182 1073.01 680.949 1074.64 680.179 1075.21 679.401 1075.6 678.438 1075.13 677.435 1074.64 677.235 1073.76 677.235 1072.75 677.243 1058.73 677.243 1044.71 677.235 1030.69 677.235 1029.68 677.42 1028.8 678.438 1028.3 679.464 1027.8 680.261 1028.23 681.04 1028.87 683.315 1030.73 685.591 1032.6 687.891 1034.43 688.708 1035.08 689.038 1035.87 689.034 1036.9 689.011 1041.97 689.023 1047.03 689.023 1052.09ZM681.464 1069.13C682.51 1068.37 683.363 1067.84 684.082 1067.18 684.463 1066.82 684.833 1066.22 684.833 1065.73 684.876 1056.56 684.868 1047.39 684.856 1038.22 684.856 1037.89 684.864 1037.43 684.668 1037.25 683.701 1036.37 682.663 1035.56 681.464 1034.58L681.464 1069.13Z" fill="url(#fill8)"/><path d="M751.745 1051.75C751.745 1058.5 751.745 1065.25 751.745 1072 751.745 1072.39 751.761 1072.79 751.734 1073.17 751.592 1075.12 749.937 1075.95 748.322 1074.83 745.842 1073.09 743.377 1071.33 741.003 1069.45 740.453 1069.02 740.013 1068.08 740.009 1067.37 739.946 1057.15 739.938 1046.94 740.017 1036.73 740.021 1035.96 740.571 1034.99 741.176 1034.46 743.31 1032.56 745.578 1030.82 747.787 1029.01 748.621 1028.33 749.458 1027.74 750.598 1028.32 751.667 1028.85 751.757 1029.82 751.757 1030.86 751.749 1037.83 751.753 1044.79 751.753 1051.76ZM747.5 1069.11 747.5 1034.64C746.494 1035.44 745.614 1036.05 744.867 1036.79 744.494 1037.16 744.152 1037.78 744.148 1038.28 744.104 1047.45 744.112 1056.62 744.132 1065.79 744.132 1066.17 744.273 1066.68 744.537 1066.9 745.413 1067.65 746.376 1068.29 747.5 1069.11Z" fill="url(#fill9)"/><path d="M714.622 1102.36C724.275 1102.36 733.928 1102.36 743.582 1102.36 744.014 1102.36 744.458 1102.32 744.879 1102.39 745.999 1102.6 746.671 1103.29 746.671 1104.44 746.671 1105.59 745.991 1106.27 744.875 1106.48 744.497 1106.55 744.097 1106.51 743.708 1106.51 724.228 1106.51 704.748 1106.51 685.269 1106.51 684.88 1106.51 684.479 1106.55 684.102 1106.48 682.985 1106.27 682.309 1105.59 682.309 1104.43 682.309 1103.29 682.985 1102.59 684.106 1102.39 684.526 1102.32 684.97 1102.36 685.403 1102.36 695.142 1102.36 704.882 1102.36 714.622 1102.36Z" fill="url(#fill10)"/><path d="M732.796 1078.54C733.653 1077.34 734.428 1076.26 735.245 1075.11 737.855 1077.44 740.532 1079.82 743.204 1082.21 755.373 1093.08 767.546 1103.95 779.687 1114.85 780.277 1115.38 780.835 1116.25 780.878 1116.99 780.914 1117.57 780.241 1118.5 779.675 1118.71 779.047 1118.94 778.005 1118.75 777.455 1118.33 775.875 1117.13 774.452 1115.72 772.97 1114.39 759.834 1102.66 746.699 1090.92 733.559 1079.18 733.272 1078.93 732.969 1078.68 732.792 1078.54Z" fill="url(#fill11)"/><path d="M714.492 1096.13C707.523 1096.13 700.555 1096.13 693.586 1096.13 693.197 1096.13 692.796 1096.17 692.419 1096.1 691.302 1095.89 690.622 1095.2 690.622 1094.05 690.622 1092.91 691.294 1092.22 692.415 1092.01 692.792 1091.94 693.193 1091.98 693.582 1091.98 707.519 1091.98 721.457 1091.98 735.395 1091.98 735.784 1091.98 736.185 1091.94 736.562 1092.01 737.682 1092.21 738.358 1092.91 738.358 1094.05 738.358 1095.2 737.682 1095.89 736.566 1096.1 736.188 1096.17 735.788 1096.13 735.398 1096.13 728.43 1096.13 721.461 1096.13 714.492 1096.13Z" fill="url(#fill12)"/><path d="M714.492 1085.74C711.548 1085.74 708.604 1085.74 705.664 1085.74 704.025 1085.73 703.078 1084.95 703.078 1083.66 703.078 1082.36 704.025 1081.59 705.664 1081.59 711.552 1081.58 717.436 1081.58 723.324 1081.59 724.963 1081.59 725.914 1082.37 725.91 1083.66 725.91 1084.96 724.955 1085.74 723.32 1085.74 720.376 1085.75 717.432 1085.74 714.492 1085.74Z" fill="url(#fill13)"/><path d="M660.967 1040.92C660.967 1040.32 660.927 1039.71 660.975 1039.11 661.069 1037.95 661.757 1037.28 662.889 1037.2 664.04 1037.12 664.881 1037.77 665.007 1038.87 665.164 1040.24 665.164 1041.64 665.003 1043.01 664.874 1044.11 664.025 1044.76 662.873 1044.67 661.745 1044.58 661.061 1043.9 660.975 1042.74 660.931 1042.14 660.967 1041.53 660.967 1040.92Z" fill="url(#fill14)"/><path d="M660.963 1070.23C660.963 1069.67 660.931 1069.1 660.967 1068.54 661.045 1067.37 661.843 1066.54 662.928 1066.54 664.084 1066.53 664.893 1067.16 665.019 1068.27 665.164 1069.59 665.149 1070.95 665.031 1072.27 664.933 1073.4 663.879 1074.17 662.83 1074.02 661.706 1073.87 661.037 1073.21 660.967 1072.05 660.931 1071.44 660.959 1070.84 660.959 1070.23Z" fill="url(#fill15)"/><path d="M768.025 1040.93C768.025 1041.49 768.053 1042.06 768.021 1042.61 767.951 1043.8 767.188 1044.61 766.107 1044.69 765.05 1044.76 764.036 1044.01 763.942 1042.88 763.832 1041.59 763.832 1040.28 763.942 1038.99 764.036 1037.86 765.034 1037.11 766.099 1037.18 767.184 1037.25 767.951 1038.06 768.021 1039.24 768.053 1039.8 768.025 1040.37 768.025 1040.93Z" fill="url(#fill16)"/><path d="M768.021 1070.23C768.021 1070.84 768.057 1071.45 768.014 1072.05 767.931 1073.21 767.106 1074.05 766.021 1074.03 764.869 1074.02 764.071 1073.38 763.957 1072.27 763.82 1070.95 763.816 1069.58 763.965 1068.26 764.087 1067.15 764.901 1066.53 766.056 1066.54 767.141 1066.54 767.939 1067.37 768.018 1068.55 768.053 1069.11 768.025 1069.67 768.021 1070.23Z" fill="url(#fill17)"/><path d="M719.598 1054.55C719.209 1054.55 718.812 1054.61 718.43 1054.54 717.31 1054.35 716.65 1053.68 716.587 1052.53 716.524 1051.45 717.338 1050.55 718.474 1050.44 719.162 1050.37 719.857 1050.39 720.549 1050.42 721.889 1050.46 722.766 1051.27 722.789 1052.44 722.817 1053.66 721.909 1054.51 720.506 1054.56 720.203 1054.58 719.901 1054.56 719.598 1054.56 719.598 1054.56 719.598 1054.55 719.598 1054.55Z" fill="url(#fill18)"/></g></svg>