<svg id="Layer_1" data-name="Layer 1" xmlns="http://www.w3.org/2000/svg" xmlns:xlink="http://www.w3.org/1999/xlink" viewBox="0 0 665.26 364.92"><defs><style>.cls-1{fill:url(#linear-gradient);}</style><linearGradient id="linear-gradient" x1="1062.21" y1="186.19" x2="1062.21" y2="769.31" gradientUnits="userSpaceOnUse"><stop offset="0" stop-color="#386eb6"/><stop offset="0.26" stop-color="#307ca6"/><stop offset="0.77" stop-color="#1c9f7c"/><stop offset="1" stop-color="#12b068"/></linearGradient></defs><title>logo2</title><path class="cls-1" d="M1162.31,640c-2.87-2.76-1.73-6.49,2.6-8.33s10.13-1.09,13,1.62c20.47,19.49,10.61,35.3,1.14,50.46-7.15,11.48-14,22.47-1.36,33.51,3.09,2.71,2.17,6.44-2,8.39s-10.07,1.41-13.15-1.3c-18.79-16.4-10.07-30.42-.93-45,7.64-12.29,15.65-25.07.65-39.31ZM808.46,514.1H1207.2a9.43,9.43,0,0,1,9.42,9.42v66.37h130.63A28.83,28.83,0,0,0,1376,561.14V409.55a28.83,28.83,0,0,0-28.75-28.74h-570a28.92,28.92,0,0,0-28.8,28.74V561.14a28.83,28.83,0,0,0,28.75,28.75H799V523.52a9.5,9.5,0,0,1,9.47-9.42Zm389.32,18.84H817.88v54.62h379.9V532.94ZM811.93,435.76a9.42,9.42,0,1,1,0-18.84h507.5a9.42,9.42,0,0,1,0,18.84Zm451.35,99.34A13.32,13.32,0,1,1,1250,548.42a13.31,13.31,0,0,1,13.31-13.32Zm55.6,0a13.32,13.32,0,1,1-13.31,13.32,13.31,13.31,0,0,1,13.31-13.32ZM777.22,361.91h570a47.7,47.7,0,0,1,47.59,47.59V561.14a47.7,47.7,0,0,1-47.59,47.59h-570a47.78,47.78,0,0,1-47.64-47.59V409.55a47.78,47.78,0,0,1,47.64-47.64Zm34.71,117.81a9.42,9.42,0,1,1,0-18.84h507.5a9.42,9.42,0,0,1,0,18.84ZM845.28,640c-2.87-2.76-1.74-6.49,2.6-8.33s10.12-1.09,13,1.62c20.47,19.49,10.61,35.3,1.14,50.46-7.15,11.48-14,22.47-1.35,33.51,3.08,2.71,2.16,6.44-2,8.39s-10.07,1.41-13.15-1.3c-18.79-16.4-10.07-30.42-.92-45,7.63-12.29,15.59-25.07.65-39.31Zm79.26,0c-2.87-2.76-1.74-6.49,2.59-8.33s10.13-1.09,13,1.62c20.47,19.49,10.61,35.3,1.14,50.46-7.15,11.48-14,22.47-1.35,33.51,3.08,2.71,2.16,6.44-2,8.39s-10.07,1.41-13.15-1.3c-18.79-16.4-10.07-30.42-.92-45,7.63-12.29,15.59-25.07.65-39.31Zm79.26,0c-2.87-2.76-1.74-6.49,2.59-8.33s10.13-1.09,13.05,1.62c20.47,19.49,10.61,35.3,1.14,50.46-7.15,11.48-14,22.47-1.35,33.51,3.08,2.71,2.16,6.44-2,8.39s-10.07,1.41-13.15-1.3c-18.79-16.4-10.07-30.42-.92-45,7.63-12.29,15.64-25.07.65-39.31Zm79.25,0c-2.86-2.76-1.73-6.49,2.6-8.33s10.13-1.09,13,1.62c20.47,19.49,10.61,35.3,1.14,50.46-7.15,11.48-14,22.47-1.36,33.51,3.09,2.71,2.17,6.44-2,8.39s-10.07,1.41-13.15-1.3c-18.79-16.4-10-30.42-.92-45,7.63-12.29,15.64-25.07.64-39.31Z" transform="translate(-729.58 -361.91)"/></svg>