<svg id="Layer_1" data-name="Layer 1" xmlns="http://www.w3.org/2000/svg" xmlns:xlink="http://www.w3.org/1999/xlink" viewBox="0 0 451.4 469.87"><defs><style>.cls-1{fill-rule:evenodd;fill:url(#linear-gradient);}</style><linearGradient id="linear-gradient" x1="794.65" y1="138.25" x2="794.65" y2="782.08" gradientUnits="userSpaceOnUse"><stop offset="0" stop-color="#386eb6"/><stop offset="0.26" stop-color="#307ca6"/><stop offset="0.77" stop-color="#1c9f7c"/><stop offset="1" stop-color="#12b068"/></linearGradient></defs><title>logo1</title><path class="cls-1" d="M973,481.5c1.18,16.25,3.59,32.62,6,48.87a533.87,533.87,0,0,1,6.69,59c1,25.81-2,47-10.55,62-9.48,16.75-24.89,25.7-47.61,24.9h0c-27.11-.5-43.78-15.72-51.31-43.82-4.86-18.09-5.59-42.07-2.68-70.74,2.06-20.73,5.2-34,3.82-55.33-1.72-24.21-6-43.29-13-57.36a44,44,0,0,0-24-22.94V655.26a31,31,0,0,1,8.79,6.27,32.18,32.18,0,0,1,9.45,22.94v22.94a10.49,10.49,0,0,1-10.59,10.29H579.43A10.48,10.48,0,0,1,569,707.22V684.28a32.22,32.22,0,0,1,9.44-22.94,32.72,32.72,0,0,1,5.85-4.36V303.35a55.61,55.61,0,0,1,55.68-55.52H784.38a55.93,55.93,0,0,1,55.79,55.79v101C883.61,414.09,895.23,464.45,898,506c1.88,28-.57,27.54-3.59,55.95-2.94,27.26-2.45,49.25,1.87,65.35,4.86,18.23,15.3,28.1,31.51,28.33H928c14,.46,23.29-4.67,28.76-14.34,6.46-11.47,8.72-28.87,7.65-50.89A535.94,535.94,0,0,0,958,533.58c-2.52-17-5.08-34.07-6.27-51.89h-3.52l-.34-22.48c-26.77-2.6-36.86-20.61-36.86-46.5V400.78h-3.83a6.31,6.31,0,0,1-6.31-6.31h0v-7.22a6.31,6.31,0,0,1,6.31-6.31h18.7V347.86a9.91,9.91,0,0,1,9.87-9.94h.07a9.94,9.94,0,0,1,9.94,9.94v33.08H975V347.86a9.94,9.94,0,0,1,9.94-9.94h0a9.94,9.94,0,0,1,10,9.9v33.12H1014a6.31,6.31,0,0,1,6.31,6.31h0v7.3a6.31,6.31,0,0,1-6.16,6.23h-4.93V414c0,25.55-8.64,40.77-33.46,44.74v22.72ZM730.35,520.39H756.7a6.92,6.92,0,0,1,6.92,6.92,7.09,7.09,0,0,1-1.19,3.83L699.68,638.2a6.88,6.88,0,0,1-12.65-5l9.25-65.65-31.2.53a6.89,6.89,0,0,1-7-6.73,6.53,6.53,0,0,1,1-3.63l61.67-107.07a6.92,6.92,0,0,1,12.62,4.51l-3.17,65.2ZM652.54,295.78H774.21a23,23,0,0,1,16.21,6.73c.27.31.58.57.84.92a22.9,22.9,0,0,1,6,15.29v77.63a22.94,22.94,0,0,1-22.94,22.94H652.54a23,23,0,0,1-16.18-6.73h0a23,23,0,0,1-6.73-16.21V318.69a23,23,0,0,1,6.73-16.22,9.94,9.94,0,0,1,.92-.8,22.93,22.93,0,0,1,15.29-5.89ZM830.65,674.14H596.71a11.4,11.4,0,0,0-3.48,2.38,11.13,11.13,0,0,0-3.29,7.91v12.39H837.53V684.43a11.44,11.44,0,0,0-3.29-7.91,11.17,11.17,0,0,0-3.59-2.41Z" transform="translate(-568.95 -247.83)"/></svg>