<svg id="Layer_1" data-name="Layer 1" xmlns="http://www.w3.org/2000/svg" xmlns:xlink="http://www.w3.org/1999/xlink" viewBox="0 0 637.76 642.47"><defs><style>.cls-1{fill:url(#linear-gradient);}</style><linearGradient id="linear-gradient" x1="959.66" y1="108.11" x2="959.66" y2="1020.81" gradientUnits="userSpaceOnUse"><stop offset="0" stop-color="#386eb6"/><stop offset="0.26" stop-color="#307ca6"/><stop offset="0.77" stop-color="#1c9f7c"/><stop offset="1" stop-color="#12b068"/></linearGradient></defs><title>logo3</title><path class="cls-1" d="M817.39,306.23a9.69,9.69,0,0,1,9.68-16.79l21.59,12.45A9.68,9.68,0,0,1,839,318.67l-21.6-12.44Zm199.78,131.39,4.6,46.27H1108l-8.47-46.27Zm104.93,0,8.47,46.27h67.55l-12.75-46.27Zm82.14,68.54h-69.59l6.54,35.81h72.93l-9.88-35.81Zm16,58.19h-75l6.53,35.82h78.27l-9.83-35.82Zm16,58.09h-80.36l12.24,66.87h86.53l-18.41-66.87Zm-90.71,66.87-12.23-66.87h-97.88l6.64,66.87Zm-125.85,0-6.64-66.87h-121L883,689.31Zm-159.15,0,9.15-66.87H777.29l-15.53,66.87Zm-121.61,0,15.53-66.87H683l-18.4,66.87Zm-49.83-89.14h70.53L768,564.35H699l-9.83,35.82Zm16-58.2h68l8.31-35.81H715L705.14,542Zm16-58.08H786.6l10.77-46.27H733.9l-12.76,46.27Zm99-46.27-10.77,46.27H888.6l6.33-46.27Zm97.1,0a9.91,9.91,0,0,1-.11,1.2L911,483.89h88.47l-4.61-46.27Zm342.35,274H983.13V814.53h85.17v47H851v-47h85.17V711.58H659.65a19.53,19.53,0,0,1-5.07-.73,19.75,19.75,0,0,1-8.94-5.23,16.49,16.49,0,0,1-4.86-11.55,15.57,15.57,0,0,1,.62-4.18h0l71.27-258.76a24.08,24.08,0,0,1,5.8-10.61,17.13,17.13,0,0,1,12.5-5.18H869.62a86.8,86.8,0,1,1,148.49,0h170.24a16.84,16.84,0,0,1,11.55,4.39c.32.27.63.53.89.79a23.88,23.88,0,0,1,5.8,10.61l71.32,258.81a15.44,15.44,0,0,1,.63,4.13,16.28,16.28,0,0,1-4.86,11.5,20.11,20.11,0,0,1-9,5.23,18.26,18.26,0,0,1-5.12.78Zm-235.7-205.42,3.56,35.81h91.18l-6.53-35.81Zm-219.64,0L796,542h84.7l4.86-35.81Zm103.68,0L903.09,542H1005.2l-3.56-35.81Zm121.77,58.19,3.55,35.82h96l-6.54-35.82Zm-238.94,0-8.31,35.82h90.29l4.86-35.82Zm109.22,0-4.86,35.82H1011l-3.56-35.82ZM866.38,251.64A9.69,9.69,0,0,1,883.17,242l12.44,21.54a9.66,9.66,0,1,1-16.73,9.67l-12.5-21.54Zm69.7-22.85a9.73,9.73,0,0,1,19.45,0v24.89a9.73,9.73,0,1,1-19.45,0V228.79ZM1008,244a9.68,9.68,0,1,1,16.78,9.67l-12.44,21.59a9.69,9.69,0,0,1-16.79-9.67L1008,244Zm54.58,49a9.68,9.68,0,1,1,9.67,16.78l-21.54,12.44a9.66,9.66,0,1,1-9.67-16.73L1062.55,293Zm22.85,69.69a9.73,9.73,0,1,1,0,19.45h-24.89a9.73,9.73,0,0,1,0-19.45ZM802.23,378.12a9.73,9.73,0,0,1,0-19.45h24.89a9.73,9.73,0,0,1,0,19.45Z" transform="translate(-640.78 -219.07)"/></svg>