<svg id="Layer_1" data-name="Layer 1" xmlns="http://www.w3.org/2000/svg" xmlns:xlink="http://www.w3.org/1999/xlink" viewBox="0 0 1041.66 817.81"><defs><style>.cls-1{fill-rule:evenodd;fill:url(#linear-gradient);}</style><linearGradient id="linear-gradient" x1="959.66" y1="158.79" x2="959.66" y2="994.61" gradientUnits="userSpaceOnUse"><stop offset="0" stop-color="#386eb6"/><stop offset="1" stop-color="#12b068"/></linearGradient></defs><title>logo4</title><path class="cls-1" d="M662.46,456.23V266.81h102.6V456.23ZM472,131.4H595.4a33.25,33.25,0,0,1,33.12,33.12V949.21H438.83V164.52A33.23,33.23,0,0,1,472,131.4ZM803.29,431.08V303C1108,279.08,1314,389.7,1331,617c5.43,13.8,8.07,25.64,8.19,35.73,16.91-10.77,33.92-20.71,55.77-23.16,28.1-3.09,58.76,10.14,84.84,21.33l.65.32v80c-5.6-1.65-11.39-3.89-17.37-6.33-4.16-1.71-8.43-3.54-12.78-5.39-17.82-7.63-38.82-16.72-47.18-15.81-6.72.73-17.32,7.51-28.1,14.43-4,2.5-8,5.06-12,7.56-20,12.17-41.73,22.59-70.35,20.41-23.3-1.79-42.26-10.21-61.28-18.7l-1.63-.73c-14.22-6.31-28.5-12.43-40.61-12-7.45.28-18.11,6.26-28.89,12.57l-2.5,1.44c-21.41,12.66-42.85,25.27-72.92,24.17-24.56-.93-45.23-12.12-65.55-23.23l-2.56-1.38c-11.34-6.19-22.18-11.84-27.39-12-15.93-.38-34.28,6-52.12,12.58l-3.09,1.12C903,741.4,873.25,752.33,838,743.11c-19-4.92-33.3-9.28-46.46-13.22l-.39-.15c-28-13.75-85.71-15.44-122.27-5.77V647.49c6.71-1.75,13.22-3.28,19.61-4.54a149,149,0,0,1,66.69,0c17.8,3.5,36.58,9.14,57.62,15.46,14.28,4.28,29.8,9,43.82,12.64,12.51,3.29,31.72-3.83,51.86-11.25,14-5.15,28.22-10.4,43.52-13.92C916.93,562.53,930.16,441.88,803.29,431.08Zm276.63-27.61a14,14,0,0,1,9.64-26.33c49.32,18.27,97.07,56.52,133.4,103.48,35.65,46,60.59,100.81,65.64,153.73a14,14,0,0,1-27.86,2.64c-4.51-47.46-27.32-97.13-59.93-139.26-33.27-43-76.54-77.84-120.89-94.26Zm-116.23,165a14,14,0,1,1,16.52-22.6l0,0c11.9,8.7,22.34,20.06,31,32.83a181.58,181.58,0,0,1,21.79,44,14,14,0,0,1-26.55,9,153.8,153.8,0,0,0-18.37-37.17C981.14,584.26,972.9,575.24,963.69,568.49Zm27.62-96.17a14,14,0,0,1,9.32-26.43c30.44,10.82,66.33,34.08,96,63.27,26.37,25.88,48.16,56.77,57.52,88.24a14,14,0,1,1-26.86,7.89c-7.89-26.55-27-53.3-50.29-76.17-26.82-26.39-58.84-47.26-85.7-56.8ZM812.77,798c14.28,4.27,29.8,9,43.82,12.64,12.51,3.29,31.72-3.83,51.86-11.25,25.15-9.28,51.33-18.9,82.72-18.11,23.7.61,43.64,11.45,63.78,22.44,12.64,6.92,25.48,13.89,32.58,14.16,8.15.26,20.28-6.86,32.39-14,19.73-11.66,39.46-23.29,66.91-24.21,29.5-1,52.33,9.14,75,19.21,12.9,5.73,25.74,11.45,36.46,12.25,10.13.79,23.68-7.9,36.84-16.26,18.31-11.72,36.28-23.17,59.9-25.8,28.1-3.09,58.76,10.13,84.84,21.32l.65.33v80c-5.6-1.65-11.39-3.89-17.37-6.33-4.16-1.71-8.43-3.54-12.78-5.39-17.82-7.63-38.82-16.73-47.18-15.81-6.72.73-17.32,7.51-28.1,14.42-4,2.51-8,5.07-12,7.57-20,12.17-41.73,22.57-70.35,20.41-23.3-1.79-42.26-10.21-61.28-18.7l-1.63-.73c-14.22-6.31-28.5-12.43-40.61-12-7.45.28-18.11,6.26-28.89,12.57l-2.5,1.44c-21.41,12.64-42.85,25.27-72.92,24.15-24.56-.91-45.23-12.08-65.55-23.21l-2.56-1.38c-11.34-6.19-22.18-11.85-27.39-12-15.93-.38-34.28,6-52.12,12.58l-3.09,1.11C903,881,873.25,892,838,882.74c-19-4.93-33.3-9.28-46.46-13.23l-.39-.14c-28.46-15.18-86-16.84-122.27-6.37V787.22c52.93-13.67,74.36-10.07,143.92,10.82Z" transform="translate(-438.83 -131.4)"/></svg>