<svg width="182" height="148" xmlns="http://www.w3.org/2000/svg" xmlns:xlink="http://www.w3.org/1999/xlink" xml:space="preserve" overflow="hidden"><defs><clipPath id="clip0"><rect x="1956" y="981" width="182" height="148"/></clipPath><clipPath id="clip1"><rect x="1956" y="981" width="180" height="148"/></clipPath><linearGradient x1="89.9832" y1="-0.937325" x2="89.9832" y2="180.069" gradientUnits="userSpaceOnUse" spreadMethod="pad" id="fill2"><stop offset="0" stop-color="#376DB5"/><stop offset="1" stop-color="#0CB068"/></linearGradient><linearGradient x1="89.9785" y1="-0.937325" x2="89.9785" y2="180.069" gradientUnits="userSpaceOnUse" spreadMethod="pad" id="fill3"><stop offset="0" stop-color="#376DB5"/><stop offset="1" stop-color="#0CB068"/></linearGradient><linearGradient x1="89.9598" y1="-0.937325" x2="89.9598" y2="180.069" gradientUnits="userSpaceOnUse" spreadMethod="pad" id="fill4"><stop offset="0" stop-color="#376DB5"/><stop offset="1" stop-color="#0CB068"/></linearGradient><linearGradient x1="90.1097" y1="-0.937325" x2="90.1097" y2="180.069" gradientUnits="userSpaceOnUse" spreadMethod="pad" id="fill5"><stop offset="0" stop-color="#376DB5"/><stop offset="1" stop-color="#0CB068"/></linearGradient><linearGradient x1="98.241" y1="-0.937325" x2="98.241" y2="180.069" gradientUnits="userSpaceOnUse" spreadMethod="pad" id="fill6"><stop offset="0" stop-color="#376DB5"/><stop offset="1" stop-color="#0CB068"/></linearGradient><linearGradient x1="81.7207" y1="-0.937325" x2="81.7207" y2="180.069" gradientUnits="userSpaceOnUse" spreadMethod="pad" id="fill7"><stop offset="0" stop-color="#376DB5"/><stop offset="1" stop-color="#0CB068"/></linearGradient><linearGradient x1="137.449" y1="-0.937325" x2="137.449" y2="180.069" gradientUnits="userSpaceOnUse" spreadMethod="pad" id="fill8"><stop offset="0" stop-color="#376DB5"/><stop offset="1" stop-color="#0CB068"/></linearGradient><linearGradient x1="137.449" y1="-0.937325" x2="137.449" y2="180.069" gradientUnits="userSpaceOnUse" spreadMethod="pad" id="fill9"><stop offset="0" stop-color="#376DB5"/><stop offset="1" stop-color="#0CB068"/></linearGradient><linearGradient x1="137.449" y1="-0.937325" x2="137.449" y2="180.069" gradientUnits="userSpaceOnUse" spreadMethod="pad" id="fill10"><stop offset="0" stop-color="#376DB5"/><stop offset="1" stop-color="#0CB068"/></linearGradient><linearGradient x1="137.449" y1="-0.937325" x2="137.449" y2="180.069" gradientUnits="userSpaceOnUse" spreadMethod="pad" id="fill11"><stop offset="0" stop-color="#376DB5"/><stop offset="1" stop-color="#0CB068"/></linearGradient><linearGradient x1="137.445" y1="-0.937325" x2="137.445" y2="180.069" gradientUnits="userSpaceOnUse" spreadMethod="pad" id="fill12"><stop offset="0" stop-color="#376DB5"/><stop offset="1" stop-color="#0CB068"/></linearGradient><linearGradient x1="33.7156" y1="-0.937325" x2="33.7156" y2="180.069" gradientUnits="userSpaceOnUse" spreadMethod="pad" id="fill13"><stop offset="0" stop-color="#376DB5"/><stop offset="1" stop-color="#0CB068"/></linearGradient><linearGradient x1="33.7062" y1="-0.937325" x2="33.7062" y2="180.069" gradientUnits="userSpaceOnUse" spreadMethod="pad" id="fill14"><stop offset="0" stop-color="#376DB5"/><stop offset="1" stop-color="#0CB068"/></linearGradient><linearGradient x1="33.7109" y1="-0.937325" x2="33.7109" y2="180.069" gradientUnits="userSpaceOnUse" spreadMethod="pad" id="fill15"><stop offset="0" stop-color="#376DB5"/><stop offset="1" stop-color="#0CB068"/></linearGradient><linearGradient x1="33.7156" y1="-0.937325" x2="33.7156" y2="180.069" gradientUnits="userSpaceOnUse" spreadMethod="pad" id="fill16"><stop offset="0" stop-color="#376DB5"/><stop offset="1" stop-color="#0CB068"/></linearGradient><linearGradient x1="65.5424" y1="-0.937325" x2="65.5424" y2="180.069" gradientUnits="userSpaceOnUse" spreadMethod="pad" id="fill17"><stop offset="0" stop-color="#376DB5"/><stop offset="1" stop-color="#0CB068"/></linearGradient><linearGradient x1="65.6502" y1="-0.937325" x2="65.6502" y2="180.069" gradientUnits="userSpaceOnUse" spreadMethod="pad" id="fill18"><stop offset="0" stop-color="#376DB5"/><stop offset="1" stop-color="#0CB068"/></linearGradient><linearGradient x1="65.8939" y1="-0.937325" x2="65.8939" y2="180.069" gradientUnits="userSpaceOnUse" spreadMethod="pad" id="fill19"><stop offset="0" stop-color="#376DB5"/><stop offset="1" stop-color="#0CB068"/></linearGradient><linearGradient x1="65.7721" y1="-0.937325" x2="65.7721" y2="180.069" gradientUnits="userSpaceOnUse" spreadMethod="pad" id="fill20"><stop offset="0" stop-color="#376DB5"/><stop offset="1" stop-color="#0CB068"/></linearGradient></defs><g clip-path="url(#clip0)" transform="translate(-1956 -981)"><g clip-path="url(#clip1)"><g><path d="M0 176.451C0.745173 175.036 1.93089 174.61 3.49154 174.642 7.22209 174.717 10.9573 174.666 14.8941 174.666L14.8941 172.06C14.8941 140.486 14.8941 108.912 14.8941 77.3387 14.8941 73.4441 15.4377 72.9098 19.4026 72.9098 20.4993 72.9098 21.5913 72.9098 22.8707 72.9098 22.8707 69.3855 22.8707 66.0627 22.8707 62.7352 22.8707 59.6842 23.63 58.939 26.7325 58.9296 30.0694 58.9249 33.4109 58.9015 36.7478 58.939 38.7959 58.9624 39.7941 59.8529 39.8035 61.5213 39.8129 63.1804 38.7818 64.1505 36.7947 64.1833 33.9921 64.2302 31.1848 64.1974 28.265 64.1974L28.265 72.788 63.1195 72.788 63.1195 64.2021C59.6373 64.2021 56.2536 64.2021 52.8698 64.2021 52.1668 64.2021 51.4544 64.2349 50.7655 64.1411 49.1955 63.9256 48.3332 62.8898 48.4409 61.376 48.5487 59.8435 49.4392 59.0046 50.9389 58.9765 54.0415 58.9156 57.1487 58.939 60.2512 58.9343 61.1745 58.9343 62.0978 58.9343 63.2319 58.9343 63.2319 58.1095 63.2319 57.4861 63.2319 56.8628 63.2319 52.0028 63.2226 47.1381 63.2366 42.278 63.246 39.9769 64.1458 39.0396 66.4001 39.0396 82.1003 39.0255 97.7958 39.0302 113.496 39.0396 115.849 39.0396 116.734 39.9675 116.739 42.3811 116.749 53.2775 116.739 64.1739 116.739 75.0657 116.739 75.7593 116.739 76.4529 116.739 77.3434 117.531 77.3809 118.206 77.4465 118.876 77.4465 130.18 77.4511 141.489 77.4465 152.793 77.4511 155.947 77.4511 156.711 78.2291 156.711 81.416 156.711 84.6873 156.711 87.9539 156.711 91.4595 158.174 91.4595 159.5 91.4595 160.826 91.4595 164.402 91.4595 165.068 92.1062 165.068 95.6306 165.068 114.026 165.068 132.416 165.068 150.811 165.068 158.014 165.068 165.222 165.068 172.426L165.068 174.675C169.009 174.675 172.744 174.731 176.475 174.647 178.04 174.614 179.212 175.064 179.966 176.456L179.966 179.966C119.978 179.966 59.9888 179.966-2.66404e-14 179.966L-2.66404e-14 176.456ZM68.5934 102.989C72.3662 102.989 75.9889 102.989 79.6117 102.989 83.9374 102.989 84.3639 103.406 84.3639 107.652 84.3639 129.266 84.3639 150.881 84.3639 172.496L84.3639 174.535 111.471 174.535C111.471 172.36 111.471 170.312 111.471 168.269 111.471 161.942 111.457 155.615 111.481 149.288 111.49 147.029 112.807 145.796 114.719 146.209 116.449 146.584 116.758 147.886 116.753 149.419 116.734 157.152 116.744 164.885 116.744 172.618 116.744 173.241 116.744 173.869 116.744 174.577L159.631 174.577 159.631 96.8678 116.744 96.8678 116.744 98.93C116.744 110.703 116.744 122.48 116.744 134.253 116.744 134.839 116.767 135.429 116.711 136.011 116.561 137.454 115.671 138.246 114.293 138.335 112.91 138.424 111.912 137.716 111.603 136.325 111.453 135.65 111.481 134.928 111.481 134.23 111.476 105.06 111.481 75.8858 111.481 46.7163L111.481 44.3964 68.6075 44.3964 68.6075 102.993ZM47.0865 174.614 47.0865 172.421C47.0865 150.698 47.0865 128.976 47.0865 107.253 47.0865 103.56 47.6583 102.989 51.342 102.989 55.2459 102.989 59.1499 102.989 63.0913 102.989L63.0913 78.3088 20.3118 78.3088 20.3118 174.619 47.0912 174.619ZM78.9743 174.628 78.9743 108.388 52.5089 108.388 52.5089 174.628 78.9743 174.628ZM116.828 91.347 151.331 91.347 151.331 82.8361 116.828 82.8361 116.828 91.347Z" fill="url(#fill2)" transform="matrix(1 0 0 1.00127 1956 948.804)"/><path d="M92.7952 0C95.6259 0.69362 98.5082 1.21852 101.269 2.12304 105.501 3.50559 109.147 5.95201 112.352 9.03581 113.833 10.4605 113.983 11.9556 112.798 13.1507 111.593 14.3692 110.328 14.2989 108.791 12.9257 97.3787 2.71824 82.5736 2.71824 71.1664 12.9257 69.6479 14.2848 68.3544 14.3598 67.1593 13.1507 65.9783 11.9556 66.1142 10.4652 67.6092 9.0405 72.727 4.15704 78.8009 1.2607 85.8168 0.328064 86.2714 0.267138 86.7166 0.112479 87.1665 0.00468662 89.0412 0.00468662 90.9158 0.00468662 92.7905 0.00468662Z" fill="url(#fill3)" transform="matrix(1 0 0 1.00127 1956 948.804)"/><path d="M89.7535 11.0417C95.7337 11.1729 100.603 13.0288 104.723 16.7734 106.34 18.245 106.536 19.6979 105.337 21.0429 104.273 22.2427 102.829 22.1256 101.189 20.7102 94.3043 14.7816 85.6434 14.8097 78.6978 20.7805 77.1043 22.149 75.689 22.2099 74.5501 20.9539 73.3972 19.6838 73.58 18.2966 75.1547 16.8531 79.4008 12.9538 84.4483 11.0979 89.7535 11.0417Z" fill="url(#fill4)" transform="matrix(1 0 0 1.00127 1956 948.804)"/><path d="M99.2768 26.9012C98.6394 27.6323 98.1379 28.6306 97.3552 28.968 96.6476 29.2727 95.4384 29.1414 94.7776 28.7056 90.6534 25.9686 89.3692 25.9264 85.1841 28.7712 83.9281 29.6242 82.7236 29.4789 81.716 28.3916 80.7037 27.2949 80.6756 26.1045 81.6644 24.9235 85.5122 20.3259 94.5527 20.3306 98.3066 24.961 98.6909 25.4343 98.8737 26.0717 99.2768 26.8965Z" fill="url(#fill5)" transform="matrix(1 0 0 1.00127 1956 948.804)"/><path d="M100.88 109.47C100.88 126.394 100.88 143.312 100.88 160.236 100.88 160.761 100.908 161.295 100.861 161.815 100.711 163.324 99.6142 164.379 98.2035 164.299 96.7179 164.215 95.8462 163.376 95.6399 161.899 95.5743 161.44 95.6118 160.962 95.6118 160.498 95.6118 126.478 95.6118 92.4577 95.6118 58.4375 95.6118 58.0298 95.5931 57.6174 95.6259 57.2096 95.7618 55.6537 96.7694 54.6554 98.2035 54.632 99.6376 54.6085 100.706 55.5974 100.861 57.1253 100.912 57.6455 100.884 58.1798 100.884 58.7047 100.884 75.6281 100.884 92.5468 100.884 109.47Z" fill="url(#fill6)" transform="matrix(1 0 0 1.00127 1956 948.804)"/><path d="M79.0868 73.9831C79.0868 68.659 79.0821 63.335 79.0868 58.0157 79.0868 55.7896 80.0288 54.6132 81.7394 54.6273 83.436 54.6414 84.3499 55.8224 84.3546 58.0626 84.3592 68.7668 84.3592 79.4711 84.3546 90.1753 84.3546 92.3781 83.3985 93.5638 81.6972 93.5497 79.996 93.5357 79.0915 92.364 79.0915 90.1285 79.0821 84.7482 79.0915 79.3633 79.0915 73.9831Z" fill="url(#fill7)" transform="matrix(1 0 0 1.00127 1956 948.804)"/><path d="M137.431 151.144C134.45 151.144 131.465 151.162 128.484 151.139 126.487 151.125 125.428 150.22 125.386 148.585 125.344 146.865 126.431 145.885 128.507 145.881 134.473 145.862 140.435 145.862 146.401 145.881 148.397 145.885 149.461 146.799 149.503 148.435 149.546 150.15 148.449 151.125 146.373 151.139 143.392 151.162 140.407 151.144 137.426 151.144Z" fill="url(#fill8)" transform="matrix(1 0 0 1.00127 1956 948.804)"/><path d="M137.454 119.5C140.435 119.5 143.42 119.485 146.401 119.504 148.416 119.518 149.466 120.395 149.508 122.04 149.555 123.746 148.444 124.753 146.382 124.763 140.416 124.786 134.455 124.786 128.488 124.763 126.431 124.753 125.339 123.741 125.391 122.021 125.438 120.371 126.469 119.514 128.507 119.504 131.488 119.485 134.473 119.5 137.454 119.5Z" fill="url(#fill9)" transform="matrix(1 0 0 1.00127 1956 948.804)"/><path d="M137.252 111.542C134.328 111.542 131.408 111.57 128.484 111.532 126.426 111.509 125.428 110.647 125.391 108.992 125.348 107.272 126.417 106.293 128.517 106.283 134.478 106.255 140.439 106.255 146.401 106.283 148.402 106.293 149.466 107.235 149.503 108.847 149.541 110.557 148.477 111.509 146.368 111.532 143.331 111.565 140.289 111.542 137.248 111.542Z" fill="url(#fill10)" transform="matrix(1 0 0 1.00127 1956 948.804)"/><path d="M137.257 137.937C134.333 137.937 131.413 137.965 128.488 137.927 126.422 137.899 125.428 137.042 125.391 135.387 125.348 133.658 126.389 132.692 128.512 132.683 134.473 132.65 140.435 132.65 146.396 132.683 148.421 132.692 149.461 133.616 149.503 135.237 149.546 136.943 148.482 137.904 146.373 137.932 143.336 137.97 140.294 137.941 137.257 137.941Z" fill="url(#fill11)" transform="matrix(1 0 0 1.00127 1956 948.804)"/><path d="M137.252 164.341C134.272 164.341 131.291 164.388 128.31 164.327 126.23 164.285 125.142 163.066 125.428 161.253 125.639 159.903 126.497 159.144 127.823 159.139 134.248 159.106 140.678 159.087 147.104 159.153 148.683 159.172 149.583 160.315 149.499 161.81 149.41 163.432 148.444 164.28 146.893 164.308 143.678 164.369 140.463 164.327 137.252 164.327 137.252 164.332 137.252 164.336 137.252 164.346Z" fill="url(#fill12)" transform="matrix(1 0 0 1.00127 1956 948.804)"/><path d="M36.326 159.181C36.326 160.47 36.387 161.764 36.312 163.043 36.2089 164.716 35.2997 165.588 33.7952 165.621 32.2815 165.653 31.2176 164.805 31.152 163.184 31.0442 160.376 31.0489 157.56 31.152 154.757 31.2082 153.248 32.4736 152.165 33.8327 152.306 35.2856 152.456 36.1761 153.276 36.3167 154.79 36.326 154.907 36.3401 155.024 36.3401 155.141 36.3401 156.486 36.3401 157.836 36.3401 159.181 36.3354 159.181 36.3307 159.181 36.326 159.181Z" fill="url(#fill13)" transform="matrix(1 0 0 1.00127 1956 948.804)"/><path d="M36.3167 96.043C36.3167 97.3834 36.387 98.7284 36.2979 100.059 36.1948 101.62 35.1403 102.595 33.7249 102.595 32.3237 102.595 31.1895 101.625 31.1332 100.069 31.0348 97.3318 31.0301 94.5901 31.1192 91.8578 31.1707 90.1847 32.2955 89.2146 33.8046 89.2568 35.2528 89.2989 36.162 90.2316 36.326 91.8485 36.3354 91.9656 36.3448 92.0828 36.3448 92.1953 36.3448 93.4794 36.3448 94.7589 36.3448 96.043 36.3354 96.043 36.326 96.043 36.3167 96.043Z" fill="url(#fill14)" transform="matrix(1 0 0 1.00127 1956 948.804)"/><path d="M36.326 117.025C36.326 118.37 36.3916 119.72 36.3073 121.065 36.2089 122.64 35.1497 123.619 33.7343 123.619 32.3237 123.619 31.1989 122.644 31.1473 121.07 31.0536 118.323 31.0489 115.567 31.1473 112.816 31.1989 111.214 32.2721 110.29 33.7343 110.29 35.2106 110.29 36.2182 111.204 36.3213 112.812 36.4104 114.213 36.3401 115.619 36.3354 117.025Z" fill="url(#fill15)" transform="matrix(1 0 0 1.00127 1956 948.804)"/><path d="M36.326 137.838C36.326 139.244 36.3916 140.65 36.3073 142.052 36.2089 143.678 35.234 144.592 33.7578 144.606 32.2815 144.625 31.2035 143.729 31.1426 142.122 31.0395 139.376 31.0442 136.62 31.1286 133.873 31.1754 132.299 32.2815 131.31 33.6875 131.291 35.1684 131.268 36.2276 132.303 36.3167 133.977 36.387 135.261 36.3307 136.549 36.3307 137.838 36.3307 137.838 36.326 137.838 36.3213 137.838Z" fill="url(#fill16)" transform="matrix(1 0 0 1.00127 1956 948.804)"/><path d="M65.5752 119.392C66.9766 119.392 68.3778 119.326 69.7698 119.41 71.3445 119.504 72.324 120.535 72.3474 121.946 72.3708 123.347 71.396 124.519 69.8541 124.566 66.9437 124.66 64.024 124.645 61.1136 124.552 59.6232 124.5 58.8031 123.516 58.7281 122.03 58.6531 120.606 59.6467 119.589 61.1979 119.401 61.3151 119.387 61.4323 119.373 61.5448 119.373 62.8851 119.373 64.2255 119.373 65.5659 119.373 65.5659 119.378 65.5659 119.387 65.5659 119.392Z" fill="url(#fill17)" transform="matrix(1 0 0 1.00127 1956 948.804)"/><path d="M65.6596 132.767C67.1171 132.767 68.5747 132.702 70.0275 132.786 71.5273 132.87 72.3755 133.756 72.4177 135.27 72.4599 136.774 71.6725 137.834 70.1869 137.89 67.164 138.012 64.1318 138.007 61.1089 137.89 59.5998 137.834 58.8265 136.723 58.8734 135.261 58.9249 133.798 59.7591 132.852 61.287 132.781 62.7398 132.711 64.1974 132.767 65.6549 132.767Z" fill="url(#fill18)" transform="matrix(1 0 0 1.00127 1956 948.804)"/><path d="M65.9689 159.495C67.3702 159.495 68.7715 159.434 70.1681 159.509 71.7194 159.594 72.7552 160.657 72.7083 162.063 72.6567 163.544 71.86 164.585 70.3744 164.641 67.4077 164.754 64.427 164.763 61.4604 164.641 59.9326 164.58 58.953 163.324 59.0983 161.923 59.2483 160.461 60.0778 159.561 61.5963 159.505 63.0538 159.453 64.5114 159.495 65.9689 159.491Z" fill="url(#fill19)" transform="matrix(1 0 0 1.00127 1956 948.804)"/><path d="M65.8939 146.134C67.2999 146.134 68.7059 146.087 70.1072 146.148 71.6351 146.213 72.4833 147.113 72.5349 148.613 72.5864 150.108 71.8085 151.195 70.304 151.256 67.3234 151.383 64.3333 151.392 61.3573 151.275 59.7591 151.209 58.9156 150.066 59.0187 148.552 59.1218 147.019 60.0029 146.199 61.5073 146.143 62.9695 146.082 64.4364 146.129 65.8986 146.134Z" fill="url(#fill20)" transform="matrix(1 0 0 1.00127 1956 948.804)"/></g></g></g></svg>