<svg width="101" height="142" xmlns="http://www.w3.org/2000/svg" xmlns:xlink="http://www.w3.org/1999/xlink" xml:space="preserve" overflow="hidden"><defs><clipPath id="clip0"><rect x="237" y="977" width="101" height="142"/></clipPath><linearGradient x1="58.2933" y1="-5.26939" x2="58.2933" y2="143.607" gradientUnits="userSpaceOnUse" spreadMethod="pad" id="fill1"><stop offset="0" stop-color="#376DB5"/><stop offset="1" stop-color="#0CB068"/></linearGradient><linearGradient x1="24.1449" y1="-5.26939" x2="24.1449" y2="143.607" gradientUnits="userSpaceOnUse" spreadMethod="pad" id="fill2"><stop offset="0" stop-color="#376DB5"/><stop offset="1" stop-color="#0CB068"/></linearGradient><linearGradient x1="58.0159" y1="-5.26939" x2="58.0159" y2="143.607" gradientUnits="userSpaceOnUse" spreadMethod="pad" id="fill3"><stop offset="0" stop-color="#376DB5"/><stop offset="1" stop-color="#0CB068"/></linearGradient></defs><g clip-path="url(#clip0)" transform="translate(-237 -977)"><path d="M28.5767 141.996C27.8695 141.125 26.9765 140.346 26.4801 139.367 23.1881 132.861 19.9377 126.332 16.7566 119.773 13.7309 113.536 17.0451 106.558 23.6928 105.002 27.7752 104.045 32.0157 105.745 34.4202 109.37 35.61 111.165 36.7027 113.026 38.1476 114.778L38.1476 113.442C38.1476 100.961 38.1365 88.4841 38.1698 76.004 38.1725 74.9861 37.9063 74.4675 36.9301 74.046 25.4373 69.09 18.4068 56.8733 20.0542 44.8258 21.8458 31.7273 31.5719 21.8319 44.4265 20.032 60.0571 17.841 74.6672 29.2867 76.3312 45.0255 77.6486 57.4751 70.8011 69.212 59.2834 74.1375 58.2766 74.5674 57.9411 75.0555 57.9605 76.1482 58.0326 80.58 57.991 85.0146 57.991 89.9041 61.1582 88.6865 64.195 87.7547 67.0266 86.393 82.2773 79.0658 91.6235 63.1189 90.7943 46.2014 90.4171 38.5026 88.1624 31.4388 84.0328 24.9436 83.4837 24.0783 83.0566 23.7899 81.9695 24.1809 77.2409 25.8755 72.0381 23.9064 69.5004 19.5966 66.9295 15.2285 67.8142 9.72895 71.6276 6.35654 75.3578 3.06179 80.9516 2.84547 84.9286 5.84625 88.9029 8.84425 90.2757 14.2856 88.0681 18.7646 87.5744 19.7657 87.6133 20.4092 88.2345 21.3271 104.492 45.3361 95.5118 78.7135 69.4145 91.3739 68.9652 91.593 68.5242 91.8288 67.9723 92.1116 68.5381 92.5998 69.0123 93.0047 69.481 93.4096 75.1498 88.1957 83.3839 90.137 86.2349 97.3311 88.3537 96.2634 90.6057 95.8751 92.9353 96.3438 97.5225 97.2673 100.87 101.153 100.903 105.884 100.981 116.883 100.925 127.885 100.945 138.884 100.945 140.354 100.16 141.264 99.0229 141.993L97.3588 141.993C95.8085 141.22 95.3509 139.963 95.3593 138.258 95.4175 127.816 95.3981 117.371 95.3703 106.93 95.3703 106.07 95.2788 105.152 94.9738 104.359 94.2388 102.437 92.181 101.414 90.1176 101.785 88.1374 102.14 86.637 103.948 86.601 106.181 86.5511 109.276 86.6093 112.374 86.5677 115.469 86.5455 117.1 85.4251 118.228 83.9191 118.278 82.4132 118.325 81.2401 117.258 81.0626 115.649 81.0154 115.239 81.0376 114.817 81.0376 114.404 81.0376 109.784 81.0487 105.163 81.0293 100.543 81.021 98.5292 79.9754 96.9789 78.2587 96.3022 75.4354 95.1901 72.393 97.2285 72.3487 100.365 72.2849 104.938 72.3293 109.514 72.3265 114.088 72.3265 114.548 72.3459 115.017 72.2932 115.472 72.1046 117.066 70.8954 118.17 69.4339 118.115 67.9363 118.056 66.8103 116.928 66.7964 115.286 66.7576 110.574 66.7964 105.859 66.7576 101.147 66.752 100.332 66.655 99.4666 66.3693 98.7122 65.651 96.8208 63.5849 95.7087 61.6851 96.0554 59.5302 96.4492 58.0159 98.1825 57.9965 100.446 57.9577 104.974 57.9965 109.503 57.9771 114.03 57.9688 115.879 56.9094 117.036 55.2786 117.066 53.5952 117.097 52.4886 115.91 52.4359 114.01 52.4248 113.641 52.4359 113.27 52.4359 112.901 52.4359 96.219 52.4359 79.54 52.4359 62.8582 52.4359 62.3507 52.4526 61.8404 52.4193 61.3329 52.2973 59.4331 50.9078 57.7996 49.0802 57.3864 47.1804 56.9565 45.1919 57.6915 44.371 59.4304 43.9023 60.4232 43.7248 61.6407 43.722 62.7556 43.686 83.1343 43.6971 103.51 43.6915 123.889 43.6915 124.535 43.6915 125.187 43.5917 125.822 43.417 126.934 42.7292 127.824 41.6503 127.88 40.7407 127.927 39.7589 127.514 38.8936 127.12 38.5026 126.942 38.2973 126.327 38.0339 125.894 35.3382 121.482 32.6646 117.055 29.9468 112.657 28.7986 110.799 26.8434 109.994 24.8327 110.424 22.9329 110.829 21.3604 112.44 21.2356 114.501 21.1746 115.544 21.4714 116.714 21.9345 117.668 25.0906 124.188 28.3354 130.664 31.547 137.157 32.7118 139.511 32.4012 140.64 30.2352 141.993L28.5712 141.993ZM57.9938 68.502C65.6039 65.4014 73.0087 55.201 70.4739 43.3587 68.0916 32.2181 57.5667 24.2725 45.6551 25.4622 34.9083 26.5383 25.8838 36.0176 25.4816 47.039 25.1461 56.2105 31.669 67.1902 38.1504 68.2219 38.1504 67.1042 38.0866 65.9949 38.1642 64.8967 38.3168 62.6974 38.4138 60.4815 38.8049 58.321 38.9685 57.4197 39.0018 56.8733 38.3972 56.1301 34.8944 51.8424 34.5505 46.0156 37.4404 41.3924 40.3053 36.8081 45.7022 34.5505 50.9827 35.7348 60.3372 37.8286 64.0369 49.0386 57.8329 56.4157 57.5084 56.8012 57.2699 57.4391 57.3143 57.93 57.4613 59.569 57.8606 61.1887 57.9688 62.8305 58.0881 64.6692 57.9965 66.5218 57.9965 68.502ZM43.0953 53.0073C46.2652 51.3765 49.4019 51.2684 52.6079 52.7493 52.9268 52.8963 53.6645 52.6606 53.9086 52.3583 56.2271 49.4962 55.703 45.1032 52.8131 42.6487 49.9566 40.2221 45.6107 40.4578 43.0232 43.1785 40.3912 45.9463 40.3857 50.2089 43.0925 53.0073ZM83.5447 14.3272C83.5725 11.5178 81.4009 9.29353 78.6165 9.27412 75.8736 9.25471 73.5773 11.5289 73.58 14.2634 73.58 16.9646 75.7682 19.175 78.4833 19.2222 81.3039 19.2693 83.5198 17.1283 83.5447 14.3272Z" fill="url(#fill1)" transform="matrix(1.00046 0 0 1 237 977.002)"/><path d="M46.329 0C47.394 0.629553 48.3036 1.35895 48.2925 2.76781 48.2787 4.38746 47.2026 5.41637 45.3167 5.56336 34.4618 6.42033 25.1904 10.6969 17.5692 18.4761 3.76068 32.5676 1.60855 54.8515 12.433 71.3309 12.6576 71.6748 12.8989 72.0076 13.1873 72.4263 15.5696 71.4667 17.9936 71.1284 20.4924 71.7857 26.3747 73.3304 29.7193 79.4623 27.8251 85.2365 25.9254 91.0245 19.6188 94.0003 13.9611 91.7761 8.33118 89.5657 5.67152 83.0067 8.31454 77.557 8.86921 76.4116 8.7139 75.7183 8.06216 74.7365-10.45 46.72 4.4041 8.91358 37.4404 1.15372 39.5454 0.66006 41.7003 0.37995 43.8302 0 44.6622 0 45.4942 0 46.3262 0ZM22.7887 81.9889C22.797 79.185 20.6088 76.994 17.8105 77.0024 15.0399 77.0107 12.7852 79.2738 12.8185 82.0138 12.8518 84.7068 15.0677 86.9144 17.7662 86.9504 20.5451 86.9865 22.7776 84.7789 22.7859 81.9889Z" fill="url(#fill2)" transform="matrix(1.00046 0 0 1 237 977.002)"/><path d="M58.0991 1.02892C59.6328 1.0622 60.7921 2.26306 60.7754 3.79673 60.7588 5.31099 59.5385 6.52017 58.0326 6.52017 56.4906 6.52017 55.1927 5.18064 55.2592 3.66084 55.323 2.15768 56.5766 0.99841 58.1019 1.02892Z" fill="url(#fill3)" transform="matrix(1.00046 0 0 1 237 977.002)"/></g></svg>