<svg xmlns="http://www.w3.org/2000/svg" width="237.531" height="117.516" viewBox="0 0 237.531 117.516">
  <g id="Grupo_67216" data-name="Grupo 67216" transform="translate(8411.999 18784)">
    <g id="Grupo_66691" data-name="Grupo 66691" transform="translate(-8411.999 -18784)" opacity="0.6">
      <g id="Grupo_66689" data-name="Grupo 66689" transform="translate(27.135 0.205)">
        <path id="Trazado_17615" data-name="Trazado 17615" d="M437.828,295.35h-1.252c-.583-.006-.711-.467-.711-1.033a1.014,1.014,0,0,1,.026-.218l1.117-5.343a1.188,1.188,0,0,0-.959-1.4,1.224,1.224,0,0,0-1.446.928l-4.033,16.03a1.036,1.036,0,0,1-.569.705h0a1.031,1.031,0,0,0-.6.927,1.052,1.052,0,0,0,1.067,1.035h2.48a1.052,1.052,0,0,0,1.068-1.035,1.028,1.028,0,0,0-.483-.865,1.011,1.011,0,0,1-.429-.824,1.027,1.027,0,0,1,.026-.22l1.487-5.482c.1-.473.878-.828,1.395-.828h1.816a1.189,1.189,0,1,0,0-2.377" transform="translate(-429.402 -274.077)" fill="#fff"/>
        <path id="Trazado_17616" data-name="Trazado 17616" d="M449.849,307.938a1.04,1.04,0,0,1-.558-.651l-7.952-29.534a1.058,1.058,0,0,0-1.026-.76h-2.473a1.064,1.064,0,0,0-1.049.818l-1.091,5.22a.889.889,0,0,0-.019.2,1.038,1.038,0,0,0,.038.277l1.363,4.887,4.9,18.611a1.037,1.037,0,0,1-.335,1.047h0a1.051,1.051,0,0,0-.4.835,1,1,0,0,0,.973,1.035h7.248a1,1,0,0,0,.972-1.035,1.034,1.034,0,0,0-.6-.952" transform="translate(-427.632 -276.992)" fill="#fff"/>
      </g>
      <g id="Grupo_66690" data-name="Grupo 66690">
        <path id="Trazado_17617" data-name="Trazado 17617" d="M418.471,279.014c2.119,0,4.062.317,4.994,1.733a4.336,4.336,0,0,1,.353,1.784v3.734c0,.656.332,1.136,1.01,1.136s1.023-.579,1.023-1.236v-8.25a.949.949,0,0,0-1.006-1.083,1.186,1.186,0,0,0-1.122.586v0a1.007,1.007,0,0,1-.882.622,1.648,1.648,0,0,1-.441-.145,9.259,9.259,0,0,0-3.935-.795,1.051,1.051,0,0,0-1.068,1.033c0,.57.688.885,1.278.885" transform="translate(-405.652 -276.832)" fill="#fff"/>
        <path id="Trazado_17618" data-name="Trazado 17618" d="M418.471,303.36c2.119,0,4.062-.315,4.994-1.732a4.343,4.343,0,0,0,.353-1.786V294.4c0-.656.332-1.136,1.01-1.136s1.023.579,1.023,1.237v9.961a.95.95,0,0,1-1.006,1.083,1.185,1.185,0,0,1-1.122-.587v0a1.009,1.009,0,0,0-.882-.622,1.649,1.649,0,0,0-.441.145,9.221,9.221,0,0,1-3.935.8,1.051,1.051,0,0,1-1.068-1.033c0-.572.688-.886,1.278-.886" transform="translate(-405.652 -272.2)" fill="#fff"/>
        <path id="Trazado_17619" data-name="Trazado 17619" d="M415.979,307.906h-.546a1.053,1.053,0,0,1-1.02-.937V279.913a1.051,1.051,0,0,1,1.02-.937h.546c.736,0,1.3-.2,1.3-.915s-.567-1-1.3-1h-2.225a5.639,5.639,0,0,0-5.519,5.307v22.153a5.64,5.64,0,0,0,5.519,5.308h2.225c.736,0,1.3-.29,1.3-1.005s-.567-.914-1.3-.914" transform="translate(-408.235 -276.769)" fill="#fff"/>
      </g>
      <g id="Grupo_66688" data-name="Grupo 66688" transform="translate(56.519 0.358)">
        <path id="Trazado_17621" data-name="Trazado 17621" d="M457.061,306.354h0c-.318-.179-.872-.513-.872-.893V284.744a1.227,1.227,0,0,0-2.454,0v20.711c0,.381-.556.713-.873.891a1.165,1.165,0,0,0-.54.9c0,.57.822,1.033,1.41,1.033h2.449c.588,0,1.409-.463,1.409-1.033a1.026,1.026,0,0,0-.531-.892" transform="translate(-452.324 -275.294)" fill="#fff"/>
        <path id="Trazado_17622" data-name="Trazado 17622" d="M470.584,279.036h0c-.317.179-.873.513-.873.893v8.747a1.227,1.227,0,0,1-2.454,0v-8.741c0-.381-.554-.713-.87-.891a1.165,1.165,0,0,1-.54-.9c0-.57.818-1.033,1.408-1.033H469.7c.588,0,1.41.463,1.41,1.033a1.027,1.027,0,0,1-.529.892" transform="translate(-448.512 -277.111)" fill="#fff"/>
        <path id="Trazado_17623" data-name="Trazado 17623" d="M472.345,294.522l-11.7-16.375c-.329-.556-.667-1.033-1.326-1.033h-5.649a1.05,1.05,0,0,0-1.067,1.033,1.039,1.039,0,0,0,.779.995,1.418,1.418,0,0,1,1.2.883L470.448,301.7a3.359,3.359,0,0,1,.532,1.878v5.334a1.227,1.227,0,0,0,2.454,0V297.342a4.986,4.986,0,0,0-1.088-2.82" transform="translate(-452.244 -277.11)" fill="#fff"/>
      </g>
    </g>
    <path id="Trazado_17624" data-name="Trazado 17624" d="M560.785,372.493a1.039,1.039,0,0,1-.72.9h0a1.035,1.035,0,0,0-.709.973,1.05,1.05,0,0,0,1.067,1.033h6.92a1.05,1.05,0,0,0,1.066-1.033,1.037,1.037,0,0,0-.779-.995,1.04,1.04,0,0,1-.669-.96V351.492h.006c0-3.671,0-5.971,0-5.971,0-.455,0-1.558,0-2.006a1.049,1.049,0,0,0-1.067-1.033H561.86a1.05,1.05,0,0,0-1.067,1.033" transform="translate(-8777.629 -19042.324)" fill="#fff"/>
    <path id="Trazado_17625" data-name="Trazado 17625" d="M567.593,344.361a4.521,4.521,0,0,1,3.628,1.527.89.89,0,0,1,.212.572v5.535a1.076,1.076,0,0,0,2.151,0v-8.713a1.059,1.059,0,0,0-1.076-1.042,1.077,1.077,0,0,0-.968.591v0a.934.934,0,0,1-.836.5.99.99,0,0,1-.326-.056l0,0a6.9,6.9,0,0,0-2.789-.727.907.907,0,1,0,0,1.813" transform="translate(-8775.572 -19042.393)" fill="#fff"/>
    <path id="Trazado_17626" data-name="Trazado 17626" d="M559.71,344.361a4.523,4.523,0,0,0-3.629,1.527.889.889,0,0,0-.211.572v5.876a1.076,1.076,0,0,1-2.151,0v-9.054a1.06,1.06,0,0,1,1.077-1.042,1.074,1.074,0,0,1,.967.591v0a.937.937,0,0,0,.836.5.992.992,0,0,0,.327-.056l-.005,0a6.9,6.9,0,0,1,2.791-.727.907.907,0,1,1,0,1.813" transform="translate(-8779.22 -19042.393)" fill="#fff"/>
    <path id="Trazado_17627" data-name="Trazado 17627" d="M486.789,340.783a1.039,1.039,0,0,1-.668-.883V326.211h-.008v-13.3c0-.454,0-1.558,0-2a1.051,1.051,0,0,0-1.067-1.035h-5.374a1.051,1.051,0,0,0-1.067,1.035,1.038,1.038,0,0,0,.778.993,1.039,1.039,0,0,1,.668.883V339.9a1.037,1.037,0,0,1-.668.883,1.039,1.039,0,0,0-.778.995,1.05,1.05,0,0,0,1.067,1.033H486.5a1.05,1.05,0,0,0,1.068-1.033,1.04,1.04,0,0,0-.779-.995" transform="translate(-8800.395 -19051.518)" fill="#fff"/>
    <path id="Trazado_17628" data-name="Trazado 17628" d="M492.473,309.868h-4.619c-.736,0-1.3.29-1.3,1s.565.915,1.3.915h2.939a1.049,1.049,0,0,1,1.02.937v8.111a1.049,1.049,0,0,1-1.02.937h-2.939c-.736,0-1.3.2-1.3.915s.565,1,1.3,1h4.619c2.72,0,5.52-2.652,5.52-5.308v-3.206c0-2.655-2.8-5.308-5.52-5.308" transform="translate(-8798.155 -19051.518)" fill="#fff"/>
    <path id="Trazado_17629" data-name="Trazado 17629" d="M497.993,326.89c0-2.655-2.8-5.308-5.521-5.308h-4.617c-.737,0-1.3.291-1.3,1s.564.915,1.3.915h2.939a1.051,1.051,0,0,1,1.02.937v5.293h-.022v4.707c0,2.655,2.8,5.306,5.517,5.306h1.029a1.03,1.03,0,0,0,.291-2.028,1.031,1.031,0,0,1-.661-.832v-2.147" transform="translate(-8798.155 -19048.217)" fill="#fff"/>
    <path id="Trazado_17630" data-name="Trazado 17630" d="M511.455,340.783a1.04,1.04,0,0,1-.667-.883V326.211h-.008v-13.3c0-.454,0-1.558,0-2a1.051,1.051,0,0,0-1.067-1.035h-5.375a1.051,1.051,0,0,0-1.067,1.035,1.038,1.038,0,0,0,.779.993,1.035,1.035,0,0,1,.667.883V339.9a1.033,1.033,0,0,1-.667.883,1.038,1.038,0,0,0-.779.995,1.05,1.05,0,0,0,1.067,1.033h6.825a1.05,1.05,0,0,0,1.068-1.033,1.04,1.04,0,0,0-.781-.995" transform="translate(-8793.44 -19051.518)" fill="#fff"/>
    <path id="Trazado_17631" data-name="Trazado 17631" d="M517.14,309.868h-4.62c-.736,0-1.3.29-1.3,1s.564.915,1.3.915h2.939a1.049,1.049,0,0,1,1.02.937v8.111a1.049,1.049,0,0,1-1.02.937H512.52c-.736,0-1.3.2-1.3.915s.564,1,1.3,1h4.62c2.719,0,5.52-2.652,5.52-5.308v-3.206c0-2.655-2.8-5.308-5.52-5.308" transform="translate(-8791.2 -19051.518)" fill="#fff"/>
    <path id="Trazado_17632" data-name="Trazado 17632" d="M522.66,326.89c0-2.655-2.8-5.308-5.521-5.308h-4.617c-.737,0-1.3.291-1.3,1s.565.915,1.3.915h2.94a1.051,1.051,0,0,1,1.02.937v5.293h-.023v4.707c0,2.655,2.8,5.306,5.519,5.306h1.029a1.03,1.03,0,0,0,.29-2.028,1.031,1.031,0,0,1-.66-.832v-2.147" transform="translate(-8791.2 -19048.217)" fill="#fff"/>
    <path id="Trazado_17633" data-name="Trazado 17633" d="M512.526,373.413a1.04,1.04,0,0,1-.669-.883V358.841h-.008v-13.3c0-.455,0-1.558,0-2a1.051,1.051,0,0,0-1.067-1.035h-5.373a1.051,1.051,0,0,0-1.066,1.035,1.037,1.037,0,0,0,.777.993,1.042,1.042,0,0,1,.669.883v27.12a1.042,1.042,0,0,1-.669.883,1.036,1.036,0,0,0-.777.995,1.052,1.052,0,0,0,1.066,1.033h6.824a1.052,1.052,0,0,0,1.066-1.033,1.039,1.039,0,0,0-.778-.995" transform="translate(-8793.139 -19042.318)" fill="#fff"/>
    <path id="Trazado_17634" data-name="Trazado 17634" d="M518.209,342.5h-4.617c-.737,0-1.3.29-1.3,1s.565.915,1.3.915h2.94a1.051,1.051,0,0,1,1.02.937v8.111a1.051,1.051,0,0,1-1.02.937h-2.94c-.737,0-1.3.2-1.3.915s.565,1,1.3,1h4.617c2.72,0,5.519-2.655,5.519-5.308v-3.206c0-2.655-2.8-5.308-5.519-5.308" transform="translate(-8790.898 -19042.318)" fill="#fff"/>
    <path id="Trazado_17635" data-name="Trazado 17635" d="M523.729,359.519c0-2.654-2.8-5.307-5.519-5.307h-4.619c-.738,0-1.3.291-1.3,1s.564.914,1.3.914h2.94a1.053,1.053,0,0,1,1.02.938v5.293h-.023v4.707c0,2.654,2.8,5.306,5.519,5.306h1.028a1.051,1.051,0,0,0,1.068-1.032,1.039,1.039,0,0,0-.777-1,1.029,1.029,0,0,1-.66-.832v-2.147" transform="translate(-8790.898 -19039.018)" fill="#fff"/>
    <path id="Trazado_17636" data-name="Trazado 17636" d="M584.159,361.174h-1.254c-.582-.006-.711-.468-.711-1.033a.95.95,0,0,1,.027-.219l1.115-5.342a1.191,1.191,0,0,0-.958-1.4,1.226,1.226,0,0,0-1.446.931L576.9,370.137a1.037,1.037,0,0,1-.57.706h0a1.03,1.03,0,0,0-.6.926A1.051,1.051,0,0,0,576.8,372.8h2.482a1.051,1.051,0,0,0,1.068-1.035,1.029,1.029,0,0,0-.485-.865,1.012,1.012,0,0,1-.43-.824,1.042,1.042,0,0,1,.027-.22l1.487-5.48c.1-.474.877-.828,1.395-.828h1.817a1.189,1.189,0,1,0,0-2.377" transform="translate(-8773.013 -19039.316)" fill="#fff"/>
    <path id="Trazado_17637" data-name="Trazado 17637" d="M596.178,373.76a1.039,1.039,0,0,1-.556-.65l-7.952-29.536a1.059,1.059,0,0,0-1.027-.76H584.17a1.063,1.063,0,0,0-1.047.819l-1.092,5.219a1.073,1.073,0,0,0-.018.2,1.032,1.032,0,0,0,.037.276l1.363,4.887,4.906,18.611a1.074,1.074,0,0,1,.031.268,1.019,1.019,0,0,1-.365.779h0a1.049,1.049,0,0,0-.4.836,1,1,0,0,0,.973,1.033H595.8a1,1,0,0,0,.972-1.033,1.037,1.037,0,0,0-.6-.954" transform="translate(-8771.242 -19042.23)" fill="#fff"/>
    <path id="Trazado_17638" data-name="Trazado 17638" d="M510.255,294.416c0-8.1,0-14.108,0-14.108,0-.455,0-1.558,0-2.006a1.049,1.049,0,0,0-1.067-1.033h-5.373a1.03,1.03,0,0,0-.289,2.028,1.042,1.042,0,0,1,.668.883V307.3a1.043,1.043,0,0,1-.668.882,1.03,1.03,0,0,0,.289,2.028h5.373a1.049,1.049,0,0,0,1.067-1.033c0-.449,0-1.551,0-2.006,0,0,0-4.743,0-12.755m7-5.444V290.4a.977.977,0,0,1-.953.923h-2.543a.961.961,0,1,0,0,1.92h2.6a.972.972,0,0,1,.895.919v1.635a.991.991,0,0,0,1.982,0v-6.82a.991.991,0,0,0-1.982,0m6.208-2.75v-8.25a.949.949,0,0,0-1.006-1.082,1.186,1.186,0,0,0-1.122.586v0a1.012,1.012,0,0,1-.883.622,1.561,1.561,0,0,1-.44-.147c-1.279-.885-4.716-.793-6.076-.793a.913.913,0,0,0-.929,1,1.026,1.026,0,0,0,1.14.915h-.2c2.117,0,5.933.114,7.133,1.732a4.051,4.051,0,0,1,.354,1.786v3.734c0,.658.332,1.136,1.009,1.136s1.023-.579,1.023-1.237m0,23.125V299.73c0-.656-.345-1.236-1.023-1.236s-1.009.478-1.009,1.134v5.1a4.041,4.041,0,0,1-.354,1.784c-1.2,1.619-5.016,1.734-7.133,1.734h.2a1.026,1.026,0,0,0-1.14.915.914.914,0,0,0,.929,1c1.36,0,4.8.09,6.076-.795a1.639,1.639,0,0,1,.44-.145,1.006,1.006,0,0,1,.883.62v0a1.184,1.184,0,0,0,1.122.586.949.949,0,0,0,1.006-1.083" transform="translate(-8793.588 -19060.816)" fill="#fff"/>
    <path id="Trazado_17639" data-name="Trazado 17639" d="M536.418,327.106c0-8.1,0-14.109,0-14.109,0-.455,0-1.558,0-2.006a1.051,1.051,0,0,0-1.068-1.033h-5.371a1.05,1.05,0,0,0-1.067,1.033,1.039,1.039,0,0,0,.777.995,1.042,1.042,0,0,1,.669.883v27.12a1.044,1.044,0,0,1-.669.883,1.039,1.039,0,0,0-.777.993,1.05,1.05,0,0,0,1.067,1.035h5.371a1.051,1.051,0,0,0,1.068-1.035c0-.449,0-1.551,0-2,0,0,0-4.743,0-12.755m7-5.444v1.422a.974.974,0,0,1-.952.924h-2.542a.96.96,0,1,0,0,1.919h2.6a.973.973,0,0,1,.895.92v1.633a.991.991,0,0,0,1.982,0v-6.819a.991.991,0,0,0-1.982,0m6.208-2.75v-8.249a.95.95,0,0,0-1.006-1.085,1.186,1.186,0,0,0-1.122.586v0a1.007,1.007,0,0,1-.881.622,1.582,1.582,0,0,1-.441-.146c-1.279-.885-4.717-.795-6.075-.795a.915.915,0,0,0-.931,1,1.026,1.026,0,0,0,1.14.914h-.2c2.118,0,5.933.114,7.134,1.733a4.047,4.047,0,0,1,.353,1.786v3.734c0,.656.332,1.134,1.009,1.134s1.023-.579,1.023-1.236m0,23.125v-9.618c0-.656-.344-1.236-1.023-1.236s-1.009.478-1.009,1.136v5.1a4.04,4.04,0,0,1-.353,1.784c-1.2,1.619-5.016,1.732-7.134,1.732h.2a1.027,1.027,0,0,0-1.14.917.915.915,0,0,0,.931,1c1.358,0,4.8.09,6.075-.8a1.666,1.666,0,0,1,.441-.144,1,1,0,0,1,.881.622v0a1.186,1.186,0,0,0,1.122.586.949.949,0,0,0,1.006-1.083" transform="translate(-8786.212 -19051.6)" fill="#fff"/>
    <path id="Trazado_17640" data-name="Trazado 17640" d="M537.728,359.736c0-8.1,0-14.11,0-14.11,0-.454,0-1.556,0-2a1.052,1.052,0,0,0-1.068-1.035h-5.371a1.051,1.051,0,0,0-1.067,1.035,1.035,1.035,0,0,0,.777.993,1.041,1.041,0,0,1,.668.885v27.12a1.041,1.041,0,0,1-.668.883,1.037,1.037,0,0,0-.777.993,1.05,1.05,0,0,0,1.067,1.035h5.371a1.051,1.051,0,0,0,1.068-1.035c0-.45,0-1.551,0-2,0,0,0-4.743,0-12.755m7-5.444v1.422a.974.974,0,0,1-.952.923h-2.543a.96.96,0,1,0,0,1.919h2.6a.975.975,0,0,1,.895.922v1.633a.991.991,0,0,0,1.982,0v-6.819a.991.991,0,0,0-1.982,0m6.208-2.75v-8.25a.95.95,0,0,0-1.006-1.085,1.187,1.187,0,0,0-1.122.587v0a1.009,1.009,0,0,1-.882.622,1.594,1.594,0,0,1-.441-.146c-1.279-.885-4.716-.795-6.075-.795a.913.913,0,0,0-.929,1,1.024,1.024,0,0,0,1.138.914h-.2c2.116,0,5.933.114,7.133,1.733a4.044,4.044,0,0,1,.354,1.784v3.734c0,.658.332,1.136,1.009,1.136s1.023-.581,1.023-1.236m0,23.125v-9.618c0-.656-.345-1.236-1.023-1.236s-1.009.478-1.009,1.136v5.1a4.044,4.044,0,0,1-.354,1.784c-1.2,1.619-5.016,1.732-7.133,1.732h.2a1.025,1.025,0,0,0-1.138.917.913.913,0,0,0,.929,1c1.359,0,4.8.091,6.075-.795a1.637,1.637,0,0,1,.441-.145,1.008,1.008,0,0,1,.882.62v0a1.184,1.184,0,0,0,1.122.587.949.949,0,0,0,1.006-1.083" transform="translate(-8785.842 -19042.402)" fill="#fff"/>
    <path id="Trazado_17641" data-name="Trazado 17641" d="M487.663,309.116a1.039,1.039,0,0,0-.778-1,1.035,1.035,0,0,1-.67-.958h-.1c0-8.781,0-26.82,0-26.82,0-.455,0-1.558,0-2.006a1.05,1.05,0,0,0-1.068-1.032h-5.373a1.051,1.051,0,0,0-1.067,1.032,1.039,1.039,0,0,0,.778.995,1.041,1.041,0,0,1,.668.883v27.023h-.019a1.042,1.042,0,0,1-.722.9h0a1.034,1.034,0,0,0-.708.973,1.049,1.049,0,0,0,1.067,1.032h6.92a1.05,1.05,0,0,0,1.067-1.032m.967-17.143a.973.973,0,0,0,.99.959h2.6a.972.972,0,0,1,.894.919v1.633a.992.992,0,0,0,1.983,0v-6.819a.992.992,0,0,0-1.983,0v1.423a.978.978,0,0,1-.951.924h-2.543a.974.974,0,0,0-.99.96m10.694-5.714v-8.25a.95.95,0,0,0-1.008-1.085,1.187,1.187,0,0,0-1.122.586v0a1.006,1.006,0,0,1-.882.623,1.553,1.553,0,0,1-.441-.147c-1.279-.883-4.716-.795-6.075-.795a.915.915,0,0,0-.931,1.005,1.027,1.027,0,0,0,1.14.914h-.2c2.117,0,5.934.113,7.133,1.732a4.049,4.049,0,0,1,.355,1.786v3.736c0,.655.331,1.135,1.009,1.135s1.023-.581,1.023-1.236" transform="translate(-8800.395 -19060.807)" fill="#fff"/>
  </g>
</svg>
