<?xml version="1.0" encoding="utf-8"?>
<!-- Generator: Adobe Illustrator 21.1.0, SVG Export Plug-In . SVG Version: 6.00 Build 0)  -->
<svg version="1.1" id="Capa_1" xmlns="http://www.w3.org/2000/svg" xmlns:xlink="http://www.w3.org/1999/xlink" x="0px" y="0px"
	 viewBox="0 0 62.9 102.7" style="enable-background:new 0 0 62.9 102.7;" xml:space="preserve">
<style type="text/css">
	.st0{fill:#A5A19E;}
</style>
<g id="Grupo_67215" transform="translate(-19.721 -14.932)">
	<path id="Trazado_17799" class="st0" d="M45.9,19.4c4.3,0,8.3,0.6,10.2,3.5c0.5,1.2,0.7,2.4,0.7,3.6v7.6c0,1.3,0.7,2.3,2.1,2.3
		S61,35.3,61,34V17.1c0.2-1.1-0.6-2-1.6-2.2c-0.1,0-0.3,0-0.4,0c-0.9-0.1-1.8,0.4-2.3,1.2v0c-0.3,0.7-1,1.2-1.8,1.3
		c-0.3-0.1-0.6-0.2-0.9-0.3c-2.5-1.1-5.3-1.7-8-1.6c-1.2,0-2.2,0.9-2.2,2.1c0,1.2,1.4,1.8,2.6,1.8"/>
	<path id="Trazado_17800" class="st0" d="M35.5,78.5h-1.1c-1.1,0-2-0.8-2.1-1.9V21.4c0.1-1.1,1-1.9,2.1-1.9h1.1
		c1.5,0,2.7-0.4,2.7-1.9s-1.2-2.1-2.7-2.1H31c-6.3,0-11.3,5.5-11.3,10.8v45.2c0,5.3,5,10.8,11.3,10.8h4.5c1.5,0,2.7-0.6,2.7-2.1
		S37,78.5,35.5,78.5"/>
	<path id="Trazado_17801" class="st0" d="M58.8,115.5c0-1-0.7-1.8-1.6-2c-0.8-0.3-1.4-1.1-1.4-2h-0.2c0-17.9,0-54.8,0-54.8
		c0-0.9,0-3.2,0-4.1c0-1.2-1-2.1-2.2-2.1h-11c-1.2,0-2.2,0.9-2.2,2.1c0,1,0.7,1.8,1.6,2c0.8,0.3,1.3,1,1.4,1.8v55.2h0
		c-0.1,0.9-0.7,1.6-1.5,1.8h0c-0.9,0.3-1.4,1.1-1.4,2c0,1.2,1,2.1,2.2,2.1c0,0,0,0,0,0h14.1C57.8,117.6,58.8,116.7,58.8,115.5
		 M60.8,80.5c0,1.1,0.9,2,2,2h5.3c1,0.1,1.8,0.9,1.8,1.9v3.3c0,1.1,1,2,2.1,1.9c1.1,0,1.9-0.9,1.9-1.9V73.7c0-1.1-1-2-2.1-1.9
		c-1.1,0-1.9,0.9-1.9,1.9v2.9c-0.1,1-0.9,1.9-1.9,1.9h-5.2C61.7,78.5,60.8,79.4,60.8,80.5 M82.7,68.8V52c0.2-1.1-0.6-2-1.6-2.2
		c-0.1,0-0.3,0-0.4,0c-0.9-0.1-1.8,0.4-2.3,1.2v0c-0.3,0.7-1,1.2-1.8,1.3c-0.3-0.1-0.6-0.2-0.9-0.3c-2.6-1.8-9.6-1.6-12.4-1.6
		c-1,0-1.9,0.8-1.9,1.8c0,0.1,0,0.1,0,0.2c0.1,1.2,1.1,2,2.3,1.9c0,0,0,0,0,0h-0.4c4.3,0,12.1,0.2,14.6,3.5c0.5,1.1,0.8,2.4,0.7,3.6
		V69c0,1.3,0.7,2.3,2.1,2.3S82.7,70.2,82.7,68.8"/>
</g>
</svg>
