<?xml version="1.0" standalone="no"?>
<!DOCTYPE svg PUBLIC "-//W3C//DTD SVG 20010904//EN"
 "http://www.w3.org/TR/2001/REC-SVG-20010904/DTD/svg10.dtd">
<svg version="1.0" xmlns="http://www.w3.org/2000/svg"
 width="896.000000pt" height="896.000000pt" viewBox="0 0 896.000000 896.000000"
 preserveAspectRatio="xMidYMid meet">
<metadata>
Created by potrace 1.11, written by Peter Selinger 2001-2013
</metadata>
<g transform="translate(0.000000,896.000000) scale(0.100000,-0.100000)"
fill="#000000" stroke="none">
<path d="M5070 8947 c-48 -23 -75 -46 -94 -82 -38 -70 -178 -119 -210 -74 -19
28 -206 96 -371 135 -83 20 -338 22 -405 4 -57 -15 -96 -43 -117 -83 -53 -103
-26 -186 77 -235 53 -25 78 -29 222 -37 59 -3 116 -8 126 -10 11 -2 37 -6 58
-10 77 -12 92 -15 160 -36 63 -19 192 -79 222 -104 38 -31 90 -82 114 -112 25
-32 67 -142 84 -223 4 -19 9 -219 11 -445 4 -399 4 -411 26 -455 39 -79 142
-113 242 -80 51 17 101 78 115 141 8 39 10 268 8 824 -3 855 1 797 -70 864
-31 29 -38 31 -103 30 -38 0 -81 -6 -95 -12z"/>
<path d="M2635 8902 c-1 -2 -17 -5 -34 -7 -129 -16 -308 -88 -406 -162 -194
-147 -307 -301 -379 -514 -53 -157 -51 -97 -50 -2224 1 -1089 4 -2006 8 -2037
10 -87 52 -221 97 -312 137 -274 372 -460 674 -532 84 -20 565 -28 653 -11
131 25 193 129 136 225 -31 53 -94 82 -188 88 -39 3 -97 6 -129 8 -73 5 -121
39 -157 113 l-25 50 3 2414 c1 1328 3 2420 4 2428 3 25 81 96 120 107 20 7 80
12 135 13 128 2 143 5 192 32 45 27 63 59 66 122 5 96 -51 170 -146 193 -31 8
-567 13 -574 6z"/>
<path d="M6978 5904 c-45 -14 -69 -34 -148 -123 -50 -57 -147 -76 -185 -36
-35 38 -144 83 -242 101 -21 4 -47 8 -58 11 -35 6 -78 12 -145 19 -72 8 -665
10 -692 3 -36 -10 -86 -63 -94 -98 -12 -58 -11 -111 2 -137 7 -13 10 -24 6
-24 -4 0 10 -16 32 -34 52 -46 94 -55 281 -61 220 -7 370 -19 495 -42 19 -3
44 -7 55 -9 11 -1 49 -10 85 -19 36 -9 72 -17 81 -20 104 -24 251 -99 320
-163 48 -44 61 -64 77 -115 20 -64 31 -104 39 -147 3 -14 7 -198 8 -409 2
-212 6 -404 10 -428 6 -44 41 -95 77 -114 50 -27 146 -29 184 -4 59 38 57 17
58 885 1 437 -2 810 -7 829 -13 48 -54 107 -91 129 -39 23 -88 25 -148 6z"/>
<path d="M3710 5852 c-119 -12 -177 -68 -186 -179 -7 -88 32 -152 107 -173 45
-13 66 -31 112 -100 l37 -55 1 -2090 c0 -1149 0 -2097 0 -2105 0 -8 0 -46 -1
-85 0 -38 0 -99 -1 -135 -1 -36 -1 -71 0 -77 2 -19 2 -31 2 -103 -1 -36 0 -72
0 -80 4 -66 -6 -170 -19 -195 -17 -35 -67 -84 -108 -105 -88 -46 -139 -116
-130 -178 5 -42 15 -71 30 -90 27 -33 54 -55 88 -73 35 -18 68 -19 690 -18
631 0 654 1 693 20 100 49 146 169 101 257 -14 28 -66 76 -84 78 -55 6 -152
93 -152 135 0 12 -8 23 -19 26 -19 5 -19 54 -19 2588 0 2016 -3 2588 -12 2606
-26 51 -63 90 -103 111 -41 21 -50 22 -522 22 -264 1 -491 0 -505 -2z"/>
<path d="M6230 4002 c-53 -6 -97 -34 -120 -74 -21 -38 -23 -54 -25 -222 -1
-173 -2 -183 -26 -218 -41 -63 -67 -68 -343 -68 -134 0 -258 -3 -275 -6 -17
-4 -45 -21 -62 -38 -37 -37 -80 -122 -72 -145 24 -78 41 -100 93 -123 16 -7
125 -12 300 -13 311 -2 315 -2 365 -79 17 -25 19 -51 21 -225 2 -206 7 -233
50 -273 42 -38 121 -50 178 -28 34 12 73 52 86 86 8 20 11 221 11 667 0 605
-1 641 -19 675 -31 60 -95 93 -162 84z"/>
</g>
</svg>
